<?xml version="1.0" encoding="UTF-8" standalone="no"?>
<svg
   xmlns:dc="http://purl.org/dc/elements/1.1/"
   xmlns:cc="http://creativecommons.org/ns#"
   xmlns:rdf="http://www.w3.org/1999/02/22-rdf-syntax-ns#"
   xmlns:svg="http://www.w3.org/2000/svg"
   xmlns="http://www.w3.org/2000/svg"
   xmlns:sodipodi="http://sodipodi.sourceforge.net/DTD/sodipodi-0.dtd"
   xmlns:inkscape="http://www.inkscape.org/namespaces/inkscape"
   id="Capa_1"
   enable-background="new 0 0 512 512"
   height="415.04239"
   viewBox="0 0 511.99985 415.04239"
   width="511.99985"
   version="1.1"
   sodipodi:docname="animal-shelter.svg"
   inkscape:version="1.0.2 (e86c870879, 2021-01-15)"
   inkscape:export-filename="/home/iqsoft/git/StrayAnimals/svgs/animal-shelter.png"
   inkscape:export-xdpi="93.750031"
   inkscape:export-ydpi="93.750031">
  <metadata
     id="metadata1033">
    <rdf:RDF>
      <cc:Work
         rdf:about="">
        <dc:format>image/svg+xml</dc:format>
        <dc:type
           rdf:resource="http://purl.org/dc/dcmitype/StillImage" />
      </cc:Work>
    </rdf:RDF>
  </metadata>
  <defs
     id="defs1031" />
  <sodipodi:namedview
     pagecolor="#ffffff"
     bordercolor="#666666"
     borderopacity="1"
     objecttolerance="10"
     gridtolerance="10"
     guidetolerance="10"
     inkscape:pageopacity="0"
     inkscape:pageshadow="2"
     inkscape:window-width="1920"
     inkscape:window-height="1016"
     id="namedview1029"
     showgrid="false"
     inkscape:zoom="0.84179688"
     inkscape:cx="-44.004946"
     inkscape:cy="247.4518"
     inkscape:window-x="0"
     inkscape:window-y="27"
     inkscape:window-maximized="1"
     inkscape:current-layer="Capa_1" />
  <g
     id="g1026"
     style="fill:#c2927b;fill-opacity:1"
     transform="translate(1.6328045e-4,-48.478625)">
    <path
       d="m 214.774,408.826 c 9.418,0 15.84,-2.965 21.506,-5.582 5.814,-2.685 10.835,-5.003 19.721,-5.003 8.886,0 13.907,2.319 19.72,5.003 5.665,2.617 12.088,5.582 21.506,5.582 10.836,0 21.492,-4.678 28.505,-12.513 4.903,-5.478 10.405,-15.098 8.77,-29.816 -1.915,-17.226 -11.535,-25.227 -18.559,-31.069 -3.245,-2.699 -6.047,-5.029 -7.6,-7.696 -0.526,-0.903 -1.436,-3.338 -2.315,-5.692 -5.282,-14.141 -16.274,-43.565 -50.026,-43.565 -16.571,0 -29.848,7.245 -39.464,21.535 -2.317,3.443 -1.404,8.113 2.039,10.431 3.442,2.317 8.113,1.404 10.431,-2.039 6.839,-10.163 15.417,-14.896 26.995,-14.896 21.521,0 29.559,16.695 35.947,33.794 1.251,3.346 2.238,5.989 3.408,7.999 2.889,4.959 7,8.378 10.976,11.685 6.432,5.349 11.986,9.969 13.231,21.173 0.821,7.385 -0.872,13.485 -5.03,18.132 -4.145,4.631 -10.776,7.507 -17.306,7.507 -6.116,0 -10.127,-1.852 -15.204,-4.197 -6.163,-2.846 -13.833,-6.388 -26.022,-6.388 -12.189,0 -19.859,3.542 -26.022,6.388 -5.078,2.345 -9.089,4.197 -15.205,4.197 -6.53,0 -13.161,-2.876 -17.305,-7.507 -4.159,-4.646 -5.852,-10.746 -5.031,-18.132 1.245,-11.205 6.8,-15.824 13.231,-21.173 3.976,-3.307 8.087,-6.726 10.976,-11.685 2.089,-3.586 0.876,-8.187 -2.71,-10.276 -3.585,-2.088 -8.186,-0.876 -10.276,2.71 -1.553,2.667 -4.355,4.997 -7.6,7.696 -7.024,5.842 -16.644,13.843 -18.558,31.07 -1.635,14.717 3.866,24.337 8.769,29.815 7.01,7.834 17.666,12.512 28.502,12.512 z"
       id="path1014"
       style="fill:#c2927b;fill-opacity:1" />
    <path
       d="m 145.148,260.721 c -14.15,8.17 -17.131,28.607 -6.785,46.528 7.54,13.06 19.775,20.657 31.335,20.657 4.303,0 8.513,-1.053 12.351,-3.269 14.15,-8.17 17.131,-28.607 6.785,-46.528 C 178.489,260.19 159.3,252.552 145.148,260.721 Z m 29.387,50.9 c -6.624,3.822 -17.228,-1.62 -23.155,-11.887 -5.928,-10.268 -5.34,-22.173 1.283,-25.997 1.442,-0.832 3.071,-1.226 4.802,-1.226 6.216,0 13.716,5.081 18.353,13.113 5.928,10.268 5.34,22.173 -1.283,25.997 z"
       id="path1016"
       style="fill:#c2927b;fill-opacity:1" />
    <path
       d="m 200.579,265.603 c 5.742,4.537 12.3,6.919 18.715,6.919 2.249,-10e-4 4.481,-0.293 6.653,-0.889 8.366,-2.295 15.197,-8.903 18.74,-18.13 3.287,-8.56 3.608,-18.704 0.904,-28.562 -2.704,-9.859 -8.156,-18.419 -15.35,-24.104 -7.755,-6.127 -16.998,-8.325 -25.368,-6.031 -16.642,4.565 -25.454,25.511 -19.644,46.692 2.704,9.86 8.156,18.42 15.35,24.105 z m 8.269,-56.302 c 0.934,-0.256 1.854,-0.368 2.748,-0.368 3.966,0 7.424,2.195 9.326,3.697 4.63,3.658 8.338,9.594 10.174,16.286 1.836,6.693 1.676,13.69 -0.44,19.198 -1.065,2.772 -3.609,7.631 -8.685,9.023 -5.076,1.392 -9.744,-1.487 -12.073,-3.329 -4.63,-3.658 -8.338,-9.595 -10.174,-16.287 -3.557,-12.964 0.621,-25.888 9.124,-28.22 z"
       id="path1018"
       style="fill:#c2927b;fill-opacity:1" />
    <path
       d="m 354.268,325.204 c 7.769,-3.403 14.647,-9.78 19.368,-17.955 10.346,-17.921 7.366,-38.358 -6.784,-46.528 -14.15,-8.169 -33.339,-0.532 -43.687,17.388 -10.346,17.921 -7.365,38.358 6.785,46.528 3.685,2.128 7.879,3.196 12.251,3.196 3.957,0 8.061,-0.874 12.067,-2.629 z m -16.803,-13.583 c -6.624,-3.824 -7.212,-15.729 -1.284,-25.997 5.929,-10.268 16.533,-15.71 23.156,-11.887 6.623,3.824 7.211,15.729 1.283,25.997 -3.084,5.342 -7.597,9.607 -12.382,11.702 -2.355,1.033 -6.887,2.429 -10.773,0.185 z"
       id="path1020"
       style="fill:#c2927b;fill-opacity:1" />
    <path
       d="m 292.654,272.52 c 14.617,0 29.069,-12.619 34.117,-31.021 5.81,-21.181 -3.002,-42.127 -19.644,-46.692 -8.365,-2.295 -17.611,-0.098 -25.368,6.031 -7.195,5.685 -12.646,14.245 -15.35,24.104 -5.81,21.181 3.002,42.127 19.643,46.692 2.184,0.598 4.393,0.886 6.602,0.886 z m -11.751,-43.603 c 1.836,-6.692 5.544,-12.628 10.175,-16.286 1.901,-1.503 5.358,-3.697 9.325,-3.697 0.894,0 1.814,0.112 2.748,0.368 8.503,2.332 12.682,15.257 9.127,28.221 -3.557,12.965 -13.749,21.951 -22.249,19.616 -8.504,-2.333 -12.682,-15.256 -9.126,-28.222 z"
       id="path1022"
       style="fill:#c2927b;fill-opacity:1" />
    <path
       d="M 500.133,205.7 457.4,177.243 v -72.059 c 0,-9.669 -7.866,-17.535 -17.535,-17.535 H 417.81 c -9.669,0 -17.535,7.866 -17.535,17.535 v 34.017 L 270.768,52.958 c -8.971,-5.973 -20.565,-5.972 -29.536,0 l -120.384,80.167 c -3.454,2.301 -4.39,6.966 -2.09,10.421 2.299,3.454 6.965,4.389 10.421,2.09 L 249.563,65.469 c 3.91,-2.604 8.964,-2.604 12.875,0 L 491.802,218.21 c 5.33,3.548 6.778,10.773 3.229,16.103 -3.363,5.262 -10.96,6.796 -16.103,3.228 L 260.165,91.861 c -2.523,-1.679 -5.808,-1.679 -8.331,0 L 33.072,237.542 c -5.329,3.549 -12.554,2.101 -16.103,-3.227 -3.549,-5.331 -2.101,-12.555 3.229,-16.104 l 83.961,-55.913 c 3.454,-2.301 4.39,-6.966 2.09,-10.421 -2.301,-3.455 -6.966,-4.391 -10.421,-2.09 L 11.866,205.7 c -12.226,8.142 -15.55,24.715 -7.407,36.945 8.144,12.227 24.716,15.548 36.944,7.407 l 13.196,-8.788 v 199.712 c 0,12.432 10.113,22.545 22.545,22.545 h 269.779 c 4.151,0 7.515,-3.365 7.515,-7.515 0,-4.15 -3.364,-7.515 -7.515,-7.515 H 77.144 c -4.144,0 -7.515,-3.371 -7.515,-7.515 V 231.255 L 256,107.145 442.37,231.254 v 209.722 c 0,4.144 -3.371,7.515 -7.515,7.515 h -57.872 c -4.151,0 -7.515,3.365 -7.515,7.515 0,4.15 3.364,7.515 7.515,7.515 h 57.872 c 12.431,0 22.545,-10.113 22.545,-22.545 V 241.263 l 13.198,8.789 c 11.793,8.174 29.226,4.676 36.943,-7.408 8.142,-12.229 4.819,-28.802 -7.408,-36.944 z M 415.305,105.184 c 0,-1.381 1.123,-2.505 2.505,-2.505 h 22.056 c 1.382,0 2.505,1.124 2.505,2.505 v 62.05 L 415.305,149.21 Z"
       id="path1024"
       style="fill:#c2927b;fill-opacity:1" />
  </g>
</svg>
