<svg id="Capa_1" enable-background="new 0 0 512 512" height="512" viewBox="0 0 512 512" width="512" xmlns="http://www.w3.org/2000/svg"><g><path d="m214.774 408.826c9.418 0 15.84-2.965 21.506-5.582 5.814-2.685 10.835-5.003 19.721-5.003s13.907 2.319 19.72 5.003c5.665 2.617 12.088 5.582 21.506 5.582 10.836 0 21.492-4.678 28.505-12.513 4.903-5.478 10.405-15.098 8.77-29.816-1.915-17.226-11.535-25.227-18.559-31.069-3.245-2.699-6.047-5.029-7.6-7.696-.526-.903-1.436-3.338-2.315-5.692-5.282-14.141-16.274-43.565-50.026-43.565-16.571 0-29.848 7.245-39.464 21.535-2.317 3.443-1.404 8.113 2.039 10.431 3.442 2.317 8.113 1.404 10.431-2.039 6.839-10.163 15.417-14.896 26.995-14.896 21.521 0 29.559 16.695 35.947 33.794 1.251 3.346 2.238 5.989 3.408 7.999 2.889 4.959 7 8.378 10.976 11.685 6.432 5.349 11.986 9.969 13.231 21.173.821 7.385-.872 13.485-5.03 18.132-4.145 4.631-10.776 7.507-17.306 7.507-6.116 0-10.127-1.852-15.204-4.197-6.163-2.846-13.833-6.388-26.022-6.388s-19.859 3.542-26.022 6.388c-5.078 2.345-9.089 4.197-15.205 4.197-6.53 0-13.161-2.876-17.305-7.507-4.159-4.646-5.852-10.746-5.031-18.132 1.245-11.205 6.8-15.824 13.231-21.173 3.976-3.307 8.087-6.726 10.976-11.685 2.089-3.586.876-8.187-2.71-10.276-3.585-2.088-8.186-.876-10.276 2.71-1.553 2.667-4.355 4.997-7.6 7.696-7.024 5.842-16.644 13.843-18.558 31.07-1.635 14.717 3.866 24.337 8.769 29.815 7.01 7.834 17.666 12.512 28.502 12.512z"/><path d="m145.148 260.721c-14.15 8.17-17.131 28.607-6.785 46.528 7.54 13.06 19.775 20.657 31.335 20.657 4.303 0 8.513-1.053 12.351-3.269 14.15-8.17 17.131-28.607 6.785-46.528-10.345-17.919-29.534-25.557-43.686-17.388zm29.387 50.9c-6.624 3.822-17.228-1.62-23.155-11.887-5.928-10.268-5.34-22.173 1.283-25.997 1.442-.832 3.071-1.226 4.802-1.226 6.216 0 13.716 5.081 18.353 13.113 5.928 10.268 5.34 22.173-1.283 25.997z"/><path d="m200.579 265.603c5.742 4.537 12.3 6.919 18.715 6.919 2.249-.001 4.481-.293 6.653-.889 8.366-2.295 15.197-8.903 18.74-18.13 3.287-8.56 3.608-18.704.904-28.562-2.704-9.859-8.156-18.419-15.35-24.104-7.755-6.127-16.998-8.325-25.368-6.031-16.642 4.565-25.454 25.511-19.644 46.692 2.704 9.86 8.156 18.42 15.35 24.105zm8.269-56.302c.934-.256 1.854-.368 2.748-.368 3.966 0 7.424 2.195 9.326 3.697 4.63 3.658 8.338 9.594 10.174 16.286 1.836 6.693 1.676 13.69-.44 19.198-1.065 2.772-3.609 7.631-8.685 9.023s-9.744-1.487-12.073-3.329c-4.63-3.658-8.338-9.595-10.174-16.287-3.557-12.964.621-25.888 9.124-28.22z"/><path d="m354.268 325.204c7.769-3.403 14.647-9.78 19.368-17.955 10.346-17.921 7.366-38.358-6.784-46.528-14.15-8.169-33.339-.532-43.687 17.388-10.346 17.921-7.365 38.358 6.785 46.528 3.685 2.128 7.879 3.196 12.251 3.196 3.957 0 8.061-.874 12.067-2.629zm-16.803-13.583c-6.624-3.824-7.212-15.729-1.284-25.997 5.929-10.268 16.533-15.71 23.156-11.887 6.623 3.824 7.211 15.729 1.283 25.997-3.084 5.342-7.597 9.607-12.382 11.702-2.355 1.033-6.887 2.429-10.773.185z"/><path d="m292.654 272.52c14.617 0 29.069-12.619 34.117-31.021 5.81-21.181-3.002-42.127-19.644-46.692-8.365-2.295-17.611-.098-25.368 6.031-7.195 5.685-12.646 14.245-15.35 24.104-5.81 21.181 3.002 42.127 19.643 46.692 2.184.598 4.393.886 6.602.886zm-11.751-43.603c1.836-6.692 5.544-12.628 10.175-16.286 1.901-1.503 5.358-3.697 9.325-3.697.894 0 1.814.112 2.748.368 8.503 2.332 12.682 15.257 9.127 28.221-3.557 12.965-13.749 21.951-22.249 19.616-8.504-2.333-12.682-15.256-9.126-28.222z"/><path d="m500.133 205.7-42.733-28.457v-72.059c0-9.669-7.866-17.535-17.535-17.535h-22.055c-9.669 0-17.535 7.866-17.535 17.535v34.017l-129.507-86.243c-8.971-5.973-20.565-5.972-29.536 0l-120.384 80.167c-3.454 2.301-4.39 6.966-2.09 10.421 2.299 3.454 6.965 4.389 10.421 2.09l120.384-80.167c3.91-2.604 8.964-2.604 12.875 0l229.364 152.741c5.33 3.548 6.778 10.773 3.229 16.103-3.363 5.262-10.96 6.796-16.103 3.228l-218.763-145.68c-2.523-1.679-5.808-1.679-8.331 0l-218.762 145.681c-5.329 3.549-12.554 2.101-16.103-3.227-3.549-5.331-2.101-12.555 3.229-16.104l83.961-55.913c3.454-2.301 4.39-6.966 2.09-10.421-2.301-3.455-6.966-4.391-10.421-2.09l-83.962 55.913c-12.226 8.142-15.55 24.715-7.407 36.945 8.144 12.227 24.716 15.548 36.944 7.407l13.196-8.788v199.712c0 12.432 10.113 22.545 22.545 22.545h269.779c4.151 0 7.515-3.365 7.515-7.515s-3.364-7.515-7.515-7.515h-269.779c-4.144 0-7.515-3.371-7.515-7.515v-209.721l186.371-124.11 186.37 124.109v209.722c0 4.144-3.371 7.515-7.515 7.515h-57.872c-4.151 0-7.515 3.365-7.515 7.515s3.364 7.515 7.515 7.515h57.872c12.431 0 22.545-10.113 22.545-22.545v-199.713l13.198 8.789c11.793 8.174 29.226 4.676 36.943-7.408 8.142-12.229 4.819-28.802-7.408-36.944zm-84.828-100.516c0-1.381 1.123-2.505 2.505-2.505h22.056c1.382 0 2.505 1.124 2.505 2.505v62.05l-27.066-18.024z"/></g></svg>