<?xml version="1.0" encoding="UTF-8" standalone="no"?>
<svg
   xmlns:dc="http://purl.org/dc/elements/1.1/"
   xmlns:cc="http://creativecommons.org/ns#"
   xmlns:rdf="http://www.w3.org/1999/02/22-rdf-syntax-ns#"
   xmlns:svg="http://www.w3.org/2000/svg"
   xmlns="http://www.w3.org/2000/svg"
   xmlns:sodipodi="http://sodipodi.sourceforge.net/DTD/sodipodi-0.dtd"
   xmlns:inkscape="http://www.inkscape.org/namespaces/inkscape"
   inkscape:version="1.0.2 (e86c870879, 2021-01-15)"
   height="84.500999"
   width="59.002739"
   sodipodi:docname="cat_marker.svg"
   version="1.1"
   viewBox="0 0 59.002739 84.500999"
   data-name="Layer 1"
   id="Layer_1"
   inkscape:export-filename="/home/iqsoft/git/StrayAnimals/svgs/cat_marker.png"
   inkscape:export-xdpi="162.70432"
   inkscape:export-ydpi="162.70432">
  <metadata
     id="metadata98">
    <rdf:RDF>
      <cc:Work
         rdf:about="">
        <dc:format>image/svg+xml</dc:format>
        <dc:type
           rdf:resource="http://purl.org/dc/dcmitype/StillImage" />
        <dc:title>extens</dc:title>
      </cc:Work>
    </rdf:RDF>
  </metadata>
  <sodipodi:namedview
     inkscape:current-layer="Layer_1"
     inkscape:window-maximized="1"
     inkscape:window-y="27"
     inkscape:window-x="0"
     inkscape:cy="32.224821"
     inkscape:cx="26.347624"
     inkscape:zoom="5.6568543"
     showgrid="false"
     id="namedview96"
     inkscape:window-height="1016"
     inkscape:window-width="1920"
     inkscape:pageshadow="2"
     inkscape:pageopacity="0"
     guidetolerance="10"
     gridtolerance="10"
     objecttolerance="10"
     borderopacity="1"
     bordercolor="#666666"
     pagecolor="#ffffff"
     inkscape:document-rotation="0"
     showguides="true" />
  <defs
     id="defs75">
    <style
       id="style73">.cls-1{fill:#010101;}.cls-2{fill:#92278f;}.cls-3{fill:#ec008c;stroke:#000;stroke-miterlimit:10;stroke-width:2px;}.cls-4{isolation:isolate;}.cls-5{fill:#fff;}</style>
  </defs>
  <title
     id="title77">extens</title>
  <path
     id="path79"
     d="M 29.500752,0.00100066 A 29.39,29.39 0 0 0 7.517566e-4,29.601001 c 0,25.3 29.5000002434,54.9 29.5000002434,54.9 0,0 29.5,-30 29.5,-54.9 a 29.26,29.26 0 0 0 -29.5,-29.60000034 z"
     class="cls-1" />
  <path
     id="path81"
     d="m 29.500752,2.1010007 c -15.2,0 -27.4000002,12.2000003 -27.4000002,27.9000003 0,23.6 27.4000002,51.5 27.4000002,51.5 0,0 27.5,-28.3 27.5,-51.5 a 27.57,27.57 0 0 0 -27.5,-27.9000003 z"
     class="cls-2"
     style="fill:#ac61da;fill-opacity:1" />
  <style
     id="style2">
        .st0{fill:#fff}.st1{fill:none;stroke:#231f20;stroke-width:50;stroke-linecap:round;stroke-linejoin:round;stroke-miterlimit:10}
    </style>
  <g
     id="g1125"
     transform="matrix(0.07837991,0,0,0.07837991,8.8141883,14.089818)"
     style="stroke-width:36.4909;stroke-miterlimit:4;stroke-dasharray:none">
    <path
       d="m 435.1498,109.80915 -0.71536,-27.220507 c 9.19848,-11.206613 13.30597,-24.360171 11.76956,-38.214629 10.94627,-26.559662 9.77922,-67.442162 8.34961,-81.325546 -0.55516,-5.389143 -3.82047,-9.969469 -8.73455,-12.254626 -4.91854,-2.285156 -10.53242,-1.829015 -15.01262,1.224907 l -1.7656,1.202655 c -13.65086,9.29972 -25.60176,20.620925 -35.59793,33.708843 -13.70872,-3.614642 -28.23515,-3.614642 -41.94386,0 -9.99617,-13.087918 -21.9493,-24.409123 -35.59683,-33.70773 l -1.76449,-1.202656 c -4.48131,-3.053922 -10.09518,-3.512288 -15.01483,-1.224906 -4.91409,2.284044 -8.17939,6.86437 -8.73455,12.253513 -1.4285,13.884497 -2.59222,54.770334 8.35072,81.325546 -1.81455,16.359897 4.25102,31.737422 17.26884,44.088839 -3.47334,6.958936 -10.02732,19.436067 -18.12216,31.770797 -8.4642,0.38605 -24.86526,2.45538 -44.39256,11.63828 -31.30687,14.72113 -57.35142,41.07386 -77.4094,78.32725 -40.20052,74.65698 -46.44075,132.06181 -47.32188,152.15206 -14.58874,1.91801 15.79191,-3.21582 -18.33302,4.29382 -86.073866,18.94099 -81.781343,33.9027 -82.180745,46.65686 -0.238084,7.57306 5.67847,13.65194 11.36021,18.46368 8.565444,7.25376 22.759746,10.90467 30.223175,11.88805 17.79039,2.34408 30.19066,-0.37574 47.72985,-3.87467 8.98821,-1.80566 15.51214,-9.76143 15.51214,-18.91874 0,-1.07583 -0.0901,-2.15499 -0.2659,-3.18966 -0.10903,-0.65194 -0.25032,-1.29054 -0.41942,-1.91468 l 14.64717,-0.41551 1.19487,2.81695 c 4.60703,10.85728 15.20174,17.98643 26.99466,18.16222 l 141.58849,2.11271 c 0.0423,0 0.0834,10e-4 0.12461,10e-4 2.74463,0 5.31571,-1.34951 6.87438,-3.61464 1.58203,-2.29962 1.91023,-5.23784 0.87334,-7.82894 -4.92076,-12.29913 -14.14816,-21.83916 -25.49273,-27.24388 6.7431,-10.92848 14.4797,-25.29248 19.57514,-40.46863 l 29.49231,67.78037 c 5.12214,11.77067 16.2531,19.70642 29.05175,20.71104 l 43.45803,3.40771 c 0.21695,0.0167 0.43612,0.0256 0.65306,0.0256 2.39753,0 4.6927,-1.03355 6.28252,-2.85478 1.73556,-1.98699 2.42978,-4.67711 1.87129,-7.25487 l -0.4172,-1.92914 c -0.93676,-4.31888 -2.55106,-8.35629 -4.68936,-12.03768 0,0 17.52918,2.01926 17.84959,2.01926 2.24622,0 4.41456,-0.90784 5.99548,-2.54216 1.80676,-1.86684 2.64117,-4.46907 2.25511,-7.03904 l -0.5863,-3.91725 c -2.2351,-14.89913 -12.38702,-27.44079 -26.49291,-32.73092 l -4.42569,-1.65991 -4.26993,-96.06225 c 5.8909,-8.47644 23.86065,-37.40803 36.79726,-91.14482 13.06344,-54.26635 -6.84546,-76.83978 -16.44334,-84.23929 z M 315.55622,44.498618 c 0.25589,-1.614295 0.0323,-3.267529 -0.64193,-4.754995 -8.43973,-18.610565 -9.82484,-52.637595 -8.15158,-72.554282 13.55296,9.277469 25.22016,20.797819 34.68231,34.2450873 2.14498,3.0461339 6.04888,4.3010788 9.56562,3.0795101 13.83888,-4.81395965 29.0829,-4.81284711 42.92179,0 3.51673,1.2260188 7.42286,-0.032264 9.56561,-3.0795101 9.46215,-13.4461563 21.13047,-24.9676183 34.68232,-34.2461993 1.67437,19.913349 0.28926,53.941491 -8.15158,72.555394 -0.67309,1.487466 -0.89782,3.1407 -0.64082,4.753883 2.13719,13.458394 -3.21191,25.333643 -15.89708,35.295324 -18.13107,14.238285 -30.13203,23.47236 -37.0053,28.71243 -2.36415,1.8012 -5.66394,1.8012 -8.02586,0 -6.83879,-5.21336 -18.81194,-14.426306 -37.0053,-28.71243 -12.68629,-9.960568 -18.03427,-21.835818 -15.8982,-35.294212 z M 435.36786,190.14343 c -14.38625,59.75896 -35.38433,87.07737 -35.57902,87.32769 -1.24605,1.57425 -1.88242,3.54456 -1.79342,5.54935 l 4.64485,104.48418 c 0.14797,3.33984 2.27515,6.26805 5.40472,7.44178 l 9.58565,3.59461 c 6.11006,2.29183 10.97965,6.85547 13.70982,12.58283 l -32.83105,-3.81713 -37.00307,-103.39166 13.63529,-84.7377 c 0.90449,-5.61277 4.82731,-10.1853 10.2387,-11.93088 3.83493,-1.23826 7.9224,-0.90338 11.507,0.94232 3.5846,1.84459 6.23134,4.97639 7.45179,8.81688 1.39735,4.39119 6.09116,6.81987 10.48124,5.42252 4.39119,-1.39735 6.81876,-6.09004 5.42252,-10.48013 -2.57664,-8.10151 -8.15937,-14.70555 -15.71796,-18.5961 -7.55749,-3.89055 -16.17744,-4.5959 -24.26783,-1.98588 -11.41244,3.68139 -19.68528,13.32266 -21.58995,25.16231 l -13.97684,86.85487 c -0.22362,1.38956 -0.0923,2.8125 0.3816,4.13753 l 39.4718,110.28941 c 1.06915,2.98717 3.74036,5.1099 6.89219,5.47592 7.11246,0.82662 13.33824,4.63818 17.33337,10.212 l -30.15206,-2.36414 c -6.63296,-0.52067 -12.40037,-4.63262 -15.05489,-10.73156 L 312.27868,302.53887 c -4.75166,-10.91846 -5.48371,-23.21425 -2.06265,-34.62112 5.62278,-18.74185 2.80471,-38.94557 -7.7277,-55.43341 l -12.18676,-19.0745 c -2.48208,-3.88387 -7.64092,-5.01866 -11.52369,-2.53881 -3.88276,2.48096 -5.01978,7.64092 -2.53881,11.52368 l 12.18676,19.0745 c 7.91461,12.38813 10.03177,27.57096 5.80746,41.65349 -1.49526,4.98306 -2.38195,10.09519 -2.69235,15.22733 -16.64582,-8.86805 -35.55343,-11.65608 -55.55801,-8.05034 -19.47612,3.51007 -33.15035,11.86635 -33.72331,12.22014 -3.91836,2.42311 -5.13214,7.56527 -2.70903,11.48475 2.422,3.91948 7.56304,5.13103 11.48475,2.71015 0.44724,-0.27814 44.41481,-26.83001 82.60719,2.82918 0.86555,3.282 1.96697,6.51281 3.33317,9.65351 l 10.50126,24.13433 c -1.74558,22.03385 -15.28518,46.59428 -25.05328,61.72815 -2.90485,-0.29704 -5.86531,-0.35823 -8.85916,-0.15019 l -52.40396,3.63912 c -4.59701,0.3193 -8.0648,4.30442 -7.74661,8.90143 0.32041,4.59813 4.30886,8.06258 8.90254,7.7455 l 52.40396,-3.63912 c 10.19754,-0.70646 19.86885,3.07506 26.77216,9.95835 L 175.473,419.6348 c -5.19,-0.0779 -9.85376,-3.21636 -11.88192,-7.99471 -3.98341,-18.17371 -23.32106,-12.24351 -23.32106,-12.24351 l -28.98559,2.30016 c -0.003,0 -0.007,0.002 -0.01,0.002 -11.432463,1.47078 -16.558457,3.29932 -32.623531,1.66611 -4.584777,-0.46615 -8.678923,2.87258 -9.14619,7.45735 -0.466154,4.58478 2.872578,8.67893 7.457354,9.14508 16.859428,1.71554 21.657223,0.18739 36.484037,-1.72173 1.39513,-0.17133 5.12546,0.25946 5.36243,1.67795 0.59989,0.98014 0.95752,2.03851 0.05,3.84066 -0.55594,1.10395 -2.98979,2.0445 -4.20134,2.28703 -40.948142,8.16827 -57.85347,1.44763 -67.305608,-6.55709 -1.801202,-1.5253 -3.564085,-4.70643 -3.245383,-5.86577 0.386087,-0.38661 0.264515,-14.04052 69.800501,-30.66364 43.92418,-9.67354 23.60869,-4.90573 24.05259,-4.95802 4.31777,-0.50509 7.52522,-4.241 7.36946,-8.58546 -0.0234,-0.62748 -1.69551,-63.76411 45.44614,-151.31209 30.65603,-56.93645 70.12561,-74.06845 93.09065,-79.15832 -0.32597,0.36936 -0.64972,0.7454 -0.97792,1.10698 -3.09175,3.41661 -2.8303,8.69227 0.58631,11.78513 1.59761,1.4463 3.60018,2.15833 5.59719,2.15833 2.27403,0 4.54139,-0.92563 6.18906,-2.74464 14.70443,-16.24419 27.46082,-39.22259 33.99365,-51.986756 13.78882,10.782736 23.28212,18.080996 29.08735,22.506676 4.15979,3.17074 9.14285,4.755 14.12815,4.755 4.98306,0 9.96946,-1.58537 14.12925,-4.755 6.17126,-4.70493 16.45669,-12.61508 31.52938,-24.418019 l 0.75541,28.781409 c 0.11793,4.53248 3.82936,8.12487 8.33626,8.12487 0.0734,0 0.14908,-0.001 0.22362,-0.002 2.04708,-0.0534 3.89946,-0.84331 5.31794,-2.10381 5.5093,9.63014 10.00396,27.25833 2.60668,57.98446 z"
       id="path1070"
       style="stroke-width:40.5976;stroke-miterlimit:4;stroke-dasharray:none"
       sodipodi:nodetypes="cccccccccccccccccccccsscsccccccscccccccsccccscccsccccccccccccccsccccccccccccccccccsccccccccccccccccccccccccccccccccccccccsccccscscccccccsscccscccscccc" />
    <g
       id="g1072"
       style="stroke-width:36.4909;stroke-miterlimit:4;stroke-dasharray:none" />
    <g
       id="g1074"
       style="stroke-width:36.4909;stroke-miterlimit:4;stroke-dasharray:none" />
    <g
       id="g1076"
       style="stroke-width:36.4909;stroke-miterlimit:4;stroke-dasharray:none" />
    <g
       id="g1078"
       style="stroke-width:36.4909;stroke-miterlimit:4;stroke-dasharray:none" />
    <g
       id="g1080"
       style="stroke-width:36.4909;stroke-miterlimit:4;stroke-dasharray:none" />
    <g
       id="g1082"
       style="stroke-width:36.4909;stroke-miterlimit:4;stroke-dasharray:none" />
    <g
       id="g1084"
       style="stroke-width:36.4909;stroke-miterlimit:4;stroke-dasharray:none" />
    <g
       id="g1086"
       style="stroke-width:36.4909;stroke-miterlimit:4;stroke-dasharray:none" />
    <g
       id="g1088"
       style="stroke-width:36.4909;stroke-miterlimit:4;stroke-dasharray:none" />
    <g
       id="g1090"
       style="stroke-width:36.4909;stroke-miterlimit:4;stroke-dasharray:none" />
    <g
       id="g1092"
       style="stroke-width:36.4909;stroke-miterlimit:4;stroke-dasharray:none" />
    <g
       id="g1094"
       style="stroke-width:36.4909;stroke-miterlimit:4;stroke-dasharray:none" />
    <g
       id="g1096"
       style="stroke-width:36.4909;stroke-miterlimit:4;stroke-dasharray:none" />
    <g
       id="g1098"
       style="stroke-width:36.4909;stroke-miterlimit:4;stroke-dasharray:none" />
    <g
       id="g1100"
       style="stroke-width:36.4909;stroke-miterlimit:4;stroke-dasharray:none" />
  </g>
</svg>
