<?xml version="1.0" encoding="UTF-8" standalone="no"?>
<svg
   xmlns:dc="http://purl.org/dc/elements/1.1/"
   xmlns:cc="http://creativecommons.org/ns#"
   xmlns:rdf="http://www.w3.org/1999/02/22-rdf-syntax-ns#"
   xmlns:svg="http://www.w3.org/2000/svg"
   xmlns="http://www.w3.org/2000/svg"
   xmlns:sodipodi="http://sodipodi.sourceforge.net/DTD/sodipodi-0.dtd"
   xmlns:inkscape="http://www.inkscape.org/namespaces/inkscape"
   version="1.1"
   id="Capa_1"
   x="0px"
   y="0px"
   viewBox="0 0 57.332232 50.59917"
   xml:space="preserve"
   sodipodi:docname="dog-paw.svg"
   width="57.332233"
   height="50.599171"
   inkscape:version="1.0.2 (e86c870879, 2021-01-15)"
   inkscape:export-filename="/home/iqsoft/git/StrayAnimals/svgs/dog_paw_filled.png"
   inkscape:export-xdpi="985.98767"
   inkscape:export-ydpi="985.98767"><metadata
   id="metadata41"><rdf:RDF><cc:Work
       rdf:about=""><dc:format>image/svg+xml</dc:format><dc:type
         rdf:resource="http://purl.org/dc/dcmitype/StillImage" /></cc:Work></rdf:RDF></metadata><defs
   id="defs39" /><sodipodi:namedview
   pagecolor="#ffffff"
   bordercolor="#666666"
   borderopacity="1"
   objecttolerance="10"
   gridtolerance="10"
   guidetolerance="10"
   inkscape:pageopacity="0"
   inkscape:pageshadow="2"
   inkscape:window-width="1920"
   inkscape:window-height="1016"
   id="namedview37"
   showgrid="false"
   inkscape:zoom="8"
   inkscape:cx="-12.688584"
   inkscape:cy="34.315104"
   inkscape:window-x="0"
   inkscape:window-y="27"
   inkscape:window-maximized="1"
   inkscape:current-layer="g4" />
<g
   id="g4"
   transform="translate(4.1618547,0.26017)">
	<path
   style="fill:#c2927b;fill-opacity:1;stroke:#c2927b;stroke-width:3;stroke-linejoin:round;stroke-miterlimit:4;stroke-dasharray:none;stroke-opacity:1;paint-order:stroke fill markers"
   d="M 38.979801,36.746841 C 37.883498,34.92317 42.063,41.794 42.063,43.585 c 0,3.537 -2.627,5.252 -6.166,5.252 -1.56,0 -2.567,-0.002 -5.112,-1.326 0,0 -1.649,-1.509 -5.508,-1.354 -3.895,-0.154 -5.545,1.373 -5.545,1.373 -2.545,1.323 -3.516,1.309 -5.074,1.309 -3.539,0 -6.168,-1.713 -6.168,-5.252 0,-1.791 0.971,-3.506 3.024,-6.742 0,0 3.881,-6.445 7.244,-9.477 2.43,-2.188 5.973,-2.18 5.973,-2.18 h 1.093 v -10e-4 c 0,0 3.698,-0.009 5.976,2.181 2.412145,2.325547 5.693341,7.14202 6.972482,9.074577 0.44908,0.678481 0.207319,0.304524 0.207319,0.304264 z M 15.632091,23.368764 c 3.7,0 6.699,-4.674 6.699,-10.439 0,-5.7649994 -2.564467,-10.4389994 -6.699,-10.4389994 -4.134534,1e-7 -6.6989999,4.674 -6.6989999,10.4389994 0,5.765 2.9989999,10.439 6.6989999,10.439 z M 6.9717651,34.3546 c 2.727,-1.259 3.3489999,-5.723 1.388,-9.971 -1.961,-4.248 -5.761,-6.672 -8.48800001,-5.414 -2.72699999,1.258 -3.34799999,5.723 -1.38799999,9.971 1.96099999,4.248 5.761,6.671 8.488,5.414 z M 33.097006,22.11783 c 3.7,0 6.7,-4.674 6.7,-10.439 0,-5.765 -3,-10.439 -6.7,-10.439 -3.7,0 -6.699,4.674 -6.699,10.439 0,5.765 2.999,10.439 6.699,10.439 z m 16.03838,-3.464412 c -2.728,-1.259 -6.527,1.165 -8.488,5.414 -1.961,4.249 -1.339,8.713 1.389,9.972 2.728,1.258 6.527,-1.166 8.488,-5.414 1.961,-4.248 1.339,-8.713 -1.389,-9.972 z"
   id="path2"
   sodipodi:nodetypes="csscccssccccccscssasscssccssssssscss" />
</g>
<g
   id="g6"
   transform="translate(4.1618547,0.26017)">
</g>
<g
   id="g8"
   transform="translate(4.1618547,0.26017)">
</g>
<g
   id="g10"
   transform="translate(4.1618547,0.26017)">
</g>
<g
   id="g12"
   transform="translate(4.1618547,0.26017)">
</g>
<g
   id="g14"
   transform="translate(4.1618547,0.26017)">
</g>
<g
   id="g16"
   transform="translate(4.1618547,0.26017)">
</g>
<g
   id="g18"
   transform="translate(4.1618547,0.26017)">
</g>
<g
   id="g20"
   transform="translate(4.1618547,0.26017)">
</g>
<g
   id="g22"
   transform="translate(4.1618547,0.26017)">
</g>
<g
   id="g24"
   transform="translate(4.1618547,0.26017)">
</g>
<g
   id="g26"
   transform="translate(4.1618547,0.26017)">
</g>
<g
   id="g28"
   transform="translate(4.1618547,0.26017)">
</g>
<g
   id="g30"
   transform="translate(4.1618547,0.26017)">
</g>
<g
   id="g32"
   transform="translate(4.1618547,0.26017)">
</g>
<g
   id="g34"
   transform="translate(4.1618547,0.26017)">
</g>
</svg>
