<?xml version="1.0" encoding="UTF-8" standalone="no"?>
<svg
   xmlns:dc="http://purl.org/dc/elements/1.1/"
   xmlns:cc="http://creativecommons.org/ns#"
   xmlns:rdf="http://www.w3.org/1999/02/22-rdf-syntax-ns#"
   xmlns:svg="http://www.w3.org/2000/svg"
   xmlns="http://www.w3.org/2000/svg"
   xmlns:sodipodi="http://sodipodi.sourceforge.net/DTD/sodipodi-0.dtd"
   xmlns:inkscape="http://www.inkscape.org/namespaces/inkscape"
   viewBox="0 0 1372.4803 1145.7944"
   version="1.1"
   id="svg23"
   sodipodi:docname="dog_outline.svg"
   width="1372.4803"
   height="1145.7944"
   inkscape:version="1.0.2 (e86c870879, 2021-01-15)">
  <metadata
     id="metadata29">
    <rdf:RDF>
      <cc:Work
         rdf:about="">
        <dc:format>image/svg+xml</dc:format>
        <dc:type
           rdf:resource="http://purl.org/dc/dcmitype/StillImage" />
      </cc:Work>
    </rdf:RDF>
  </metadata>
  <defs
     id="defs27" />
  <sodipodi:namedview
     pagecolor="#ffffff"
     bordercolor="#666666"
     borderopacity="1"
     objecttolerance="10"
     gridtolerance="10"
     guidetolerance="10"
     inkscape:pageopacity="0"
     inkscape:pageshadow="2"
     inkscape:window-width="1920"
     inkscape:window-height="1016"
     id="namedview25"
     showgrid="false"
     inkscape:zoom="0.22447917"
     inkscape:cx="-19.888652"
     inkscape:cy="578.04026"
     inkscape:window-x="0"
     inkscape:window-y="27"
     inkscape:window-maximized="1"
     inkscape:current-layer="svg23"
     inkscape:document-rotation="0" />
  <style
     id="style2">
        .st0{fill:#fff}.st1{fill:none;stroke:#231f20;stroke-width:50;stroke-linecap:round;stroke-linejoin:round;stroke-miterlimit:10}
    </style>
  <path
     class="st0"
     d="m 333.7,800.93039 c -18.1,43.7 -22.2,78.4 -18.4,105.8 0,0 -290.3,-78.6 -290.3,-290.3 0.1,0.1 142.8,214.7 308.7,184.5 z M 1006.3,57.430393 c -24,-36.4 -50.6,-32.4 -50.6,-32.4 0,0 -98,105.999997 -62,101.999997 4.8,-0.5 11,0.3 18,2 46,11.2 130.5,61.8 128,40 -6.6,-56.3 -19.6,-90.699997 -33.4,-111.599997 z M 891.7,196.93039 c -4.6,41.4 -12.2,89.1 -19,128.6 0,0 53.7,86.5 230.4,81.3 -5.9,-29.4 -0.7,-58.9 30.6,-92.8 0,0 86,-21.3 140,-23.3 54,-2 38,-73.8 38,-73.8 0,0 56,-58 28,-94 h -154 c 0,0 -24,-79.999997 -126,-73.999997 -19.5,1.1 -37.3,4 -53.4,8.4 13.8,21 26.8,55.299997 33.4,111.599997 2.5,21.8 -82,-28.8 -128,-40 -10.4,19.4 -17.1,42.2 -20,68 z m 166,770 -18,-172.2 c -19.1,18.8 -39.4,36.2 -60.2,52.3 -8.1,63.9 -16.8,129.9 -16.8,129.9 0,0 30.6,34.90001 50.4,68.30001 l 126.5,-9.4 c -11.9,-75.10001 -81.9,-68.90001 -81.9,-68.90001 z m -180,118.00001 c 92,82 152,0 152,0 -1.2,-10.9 -7.8,-25.2 -16.5,-39.7 -19.9,-33.4 -50.4,-68.30001 -50.4,-68.30001 0,0 8.8,-66 16.8,-129.9 20.8,-16.1 41.1,-33.5 60.2,-52.3 26.9,-26.5 51.5,-55.7 72,-87.8 95.1,-148.9 6.5,-224.3 -8.6,-300 -176.7,5.1 -230.4,-81.3 -230.4,-81.3 -8,46.4 -15,81.3 -15,81.3 0,0 -72,65.9 -146,128 -74,62.1 -310,102.1 -378,266.1 -18.1,43.7 -22.2,78.4 -18.4,105.8 10.5,75.3 80.4,95.20001 80.4,95.20001 0,0 -22,29.9 0,83.9 l 332,-0.9 c 0,0 34,-67.9 -50,-83 0,0 77.3,-22.60001 170.7,-71.70001 z"
     id="Layer_6"
     style="fill:none;fill-opacity:1;stroke-width:1;stroke-miterlimit:4;stroke-dasharray:none" />
  <g
     id="STROKES"
     transform="translate(-273.7,-386.86961)"
     style="stroke:#c2927b;stroke-opacity:1">
    <g
       id="XMLID_1_"
       style="stroke:#c2927b;stroke-opacity:1">
      <path
         class="st1"
         d="m 1280,444.3 c 16.1,-4.4 33.9,-7.3 53.4,-8.4 102,-6 126,74 126,74 h 154 c 28,36 -28,94 -28,94 0,0 16,71.8 -38,73.8 -54,2 -140,23.3 -140,23.3 -31.3,33.9 -36.5,63.4 -30.6,92.8 15.2,75.8 103.7,151.2 8.6,300 -20.5,32.1 -45.1,61.3 -72,87.8 -19.1,18.8 -39.4,36.2 -60.2,52.3 -8.1,63.9 -16.8,129.9 -16.8,129.9 0,0 30.6,34.9 50.4,68.3 8.7,14.5 15.3,28.8 16.5,39.7 0,0 -60,82 -152,0 L 1122,1317.2 c -93.4,49.1 -170.7,71.7 -170.7,71.7 84,15 50,83 50,83 l -332,0.9 c -22,-54 0,-83.9 0,-83.9 0,0 -69.9,-19.9 -80.4,-95.2 -3.8,-27.4 0.2,-62.1 18.4,-105.8 68,-164 304,-204 378,-266.1 74,-62.1 146,-128 146,-128 0,0 7,-35 15,-81.3 6.8,-39.5 14.4,-87.2 19,-128.6 2.9,-25.9 9.6,-48.6 20,-68"
         id="path5"
         style="stroke:#c2927b;stroke-opacity:1" />
      <path
         class="st1"
         d="m 1185.4,515.8 c -7.1,-1.7 -13.2,-2.5 -18,-2 -36,4 62,-102 62,-102 0,0 26.6,-4 50.6,32.4 13.8,21 26.8,55.3 33.4,111.6 2.5,21.8 -82,-28.7 -128,-40 z"
         id="path7"
         style="stroke:#c2927b;stroke-opacity:1" />
      <path
         class="st1"
         d="m 1122.1,1317.2 -17.6,-211.4"
         id="path9"
         style="stroke:#c2927b;stroke-opacity:1" />
      <path
         class="st1"
         d="m 1253.3,1233.9 c 4.4,-35 8.6,-69.4 11.1,-92.1 7,-64 19,-93.1 19,-93.1"
         id="path11"
         style="stroke:#c2927b;stroke-opacity:1" />
      <path
         class="st1"
         d="m 1313.5,1181.6 18,172.2 c 0,0 70,-6.2 82,68.9 l -126.5,9.4"
         id="path13"
         style="stroke:#c2927b;stroke-opacity:1" />
      <path
         class="st1"
         d="m 942.4,1388.9 -137,-17 c 0,0 138,-8.8 124,-173.4"
         id="path15"
         style="stroke:#c2927b;stroke-opacity:1" />
      <path
         class="st1"
         d="m 589,1293.7 c 0,0 -290.3,-78.6 -290.3,-290.3 0,0 142.7,214.6 308.7,184.5"
         id="path17"
         style="stroke:#c2927b;stroke-opacity:1" />
      <path
         class="st1"
         d="m 1146.4,712.5 c 0,0 53.7,86.5 230.4,81.3"
         id="path19"
         style="stroke:#c2927b;stroke-opacity:1" />
    </g>
  </g>
</svg>
