<?xml version="1.0" encoding="UTF-8" standalone="no"?>
<svg
   xmlns:dc="http://purl.org/dc/elements/1.1/"
   xmlns:cc="http://creativecommons.org/ns#"
   xmlns:rdf="http://www.w3.org/1999/02/22-rdf-syntax-ns#"
   xmlns:svg="http://www.w3.org/2000/svg"
   xmlns="http://www.w3.org/2000/svg"
   xmlns:sodipodi="http://sodipodi.sourceforge.net/DTD/sodipodi-0.dtd"
   xmlns:inkscape="http://www.inkscape.org/namespaces/inkscape"
   width="1024"
   height="500"
   viewBox="0 0 270.93333 132.29167"
   version="1.1"
   id="svg8"
   inkscape:version="1.0.2 (e86c870879, 2021-01-15)"
   sodipodi:docname="play_store_background.svg"
   inkscape:export-filename="/home/iqsoft/git/StrayAnimals/images/play_store_background.png"
   inkscape:export-xdpi="96"
   inkscape:export-ydpi="96">
  <defs
     id="defs2">
    <style
       id="style73">.cls-1{fill:#010101;}.cls-2{fill:#92278f;}.cls-3{fill:#ec008c;stroke:#000;stroke-miterlimit:10;stroke-width:2px;}.cls-4{isolation:isolate;}.cls-5{fill:#fff;}</style>
  </defs>
  <sodipodi:namedview
     id="base"
     pagecolor="#ffffff"
     bordercolor="#666666"
     borderopacity="1.0"
     inkscape:pageopacity="0.0"
     inkscape:pageshadow="2"
     inkscape:zoom="0.49497475"
     inkscape:cx="342.63982"
     inkscape:cy="341.39778"
     inkscape:document-units="mm"
     inkscape:current-layer="g1300"
     inkscape:document-rotation="0"
     showgrid="false"
     units="px"
     inkscape:window-width="1920"
     inkscape:window-height="1016"
     inkscape:window-x="0"
     inkscape:window-y="27"
     inkscape:window-maximized="1" />
  <metadata
     id="metadata5">
    <rdf:RDF>
      <cc:Work
         rdf:about="">
        <dc:format>image/svg+xml</dc:format>
        <dc:type
           rdf:resource="http://purl.org/dc/dcmitype/StillImage" />
        <dc:title></dc:title>
      </cc:Work>
    </rdf:RDF>
  </metadata>
  <g
     inkscape:label="Layer 1"
     inkscape:groupmode="layer"
     id="layer1">
    <rect
       style="fill:#121212;fill-opacity:1;stroke:none;stroke-width:2.64777;stroke-miterlimit:4;stroke-dasharray:none;stroke-opacity:1;paint-order:fill markers stroke"
       id="rect1393"
       width="270.93332"
       height="132.29167"
       x="0"
       y="0" />
    <g
       id="g947"
       transform="matrix(0.04740896,0,0,0.04740896,8.2621856,40.714092)"
       style="stroke-width:50.22784723;stroke-miterlimit:4;stroke-dasharray:none">
      <path
         class="st0"
         d="m 333.7,800.93039 c -18.1,43.7 -22.2,78.4 -18.4,105.8 0,0 -290.3,-78.6 -290.3,-290.3 0.1,0.1 142.8,214.7 308.7,184.5 z M 1006.3,57.430393 c -24,-36.4 -50.6,-32.4 -50.6,-32.4 0,0 -98,105.999997 -62,101.999997 4.8,-0.5 11,0.3 18,2 46,11.2 130.5,61.8 128,40 -6.6,-56.3 -19.6,-90.699997 -33.4,-111.599997 z M 891.7,196.93039 c -4.6,41.4 -12.2,89.1 -19,128.6 0,0 53.7,86.5 230.4,81.3 -5.9,-29.4 -0.7,-58.9 30.6,-92.8 0,0 86,-21.3 140,-23.3 54,-2 38,-73.8 38,-73.8 0,0 56,-58 28,-94 h -154 c 0,0 -24,-79.999997 -126,-73.999997 -19.5,1.1 -37.3,4 -53.4,8.4 13.8,21 26.8,55.299997 33.4,111.599997 2.5,21.8 -82,-28.8 -128,-40 -10.4,19.4 -17.1,42.2 -20,68 z m 166,770 -18,-172.2 c -19.1,18.8 -39.4,36.2 -60.2,52.3 -8.1,63.9 -16.8,129.9 -16.8,129.9 0,0 30.6,34.90001 50.4,68.30001 l 126.5,-9.4 c -11.9,-75.10001 -81.9,-68.90001 -81.9,-68.90001 z m -180,118.00001 c 92,82 152,0 152,0 -1.2,-10.9 -7.8,-25.2 -16.5,-39.7 -19.9,-33.4 -50.4,-68.30001 -50.4,-68.30001 0,0 8.8,-66 16.8,-129.9 20.8,-16.1 41.1,-33.5 60.2,-52.3 26.9,-26.5 51.5,-55.7 72,-87.8 95.1,-148.9 6.5,-224.3 -8.6,-300 -176.7,5.1 -230.4,-81.3 -230.4,-81.3 -8,46.4 -15,81.3 -15,81.3 0,0 -72,65.9 -146,128 -74,62.1 -310,102.1 -378,266.1 -18.1,43.7 -22.2,78.4 -18.4,105.8 10.5,75.3 80.4,95.20001 80.4,95.20001 0,0 -22,29.9 0,83.9 l 332,-0.9 c 0,0 34,-67.9 -50,-83 0,0 77.3,-22.60001 170.7,-71.70001 z"
         id="Layer_6"
         style="fill:none;fill-opacity:1;stroke-width:50.22784723;stroke-miterlimit:4;stroke-dasharray:none" />
      <g
         id="STROKES"
         transform="translate(-273.7,-386.86961)"
         style="stroke-width:50.22784723;stroke-miterlimit:4;stroke-dasharray:none;stroke:#c2927b;stroke-opacity:1">
        <g
           id="XMLID_1_"
           style="stroke-width:55.80871914;stroke-miterlimit:4;stroke-dasharray:none;stroke:#c2927b;stroke-opacity:1">
          <path
             class="st1"
             d="m 1280,444.3 c 16.1,-4.4 33.9,-7.3 53.4,-8.4 102,-6 126,74 126,74 h 154 c 28,36 -28,94 -28,94 0,0 16,71.8 -38,73.8 -54,2 -140,23.3 -140,23.3 -31.3,33.9 -36.5,63.4 -30.6,92.8 15.2,75.8 103.7,151.2 8.6,300 -20.5,32.1 -45.1,61.3 -72,87.8 -19.1,18.8 -39.4,36.2 -60.2,52.3 -8.1,63.9 -16.8,129.9 -16.8,129.9 0,0 30.6,34.9 50.4,68.3 8.7,14.5 15.3,28.8 16.5,39.7 0,0 -60,82 -152,0 L 1122,1317.2 c -93.4,49.1 -170.7,71.7 -170.7,71.7 84,15 50,83 50,83 l -332,0.9 c -22,-54 0,-83.9 0,-83.9 0,0 -69.9,-19.9 -80.4,-95.2 -3.8,-27.4 0.2,-62.1 18.4,-105.8 68,-164 304,-204 378,-266.1 74,-62.1 146,-128 146,-128 0,0 7,-35 15,-81.3 6.8,-39.5 14.4,-87.2 19,-128.6 2.9,-25.9 9.6,-48.6 20,-68"
             id="path5"
             style="stroke-width:55.80871914;stroke-miterlimit:4;stroke-dasharray:none;stroke:#c2927b;stroke-opacity:1" />
          <path
             class="st1"
             d="m 1185.4,515.8 c -7.1,-1.7 -13.2,-2.5 -18,-2 -36,4 62,-102 62,-102 0,0 26.6,-4 50.6,32.4 13.8,21 26.8,55.3 33.4,111.6 2.5,21.8 -82,-28.7 -128,-40 z"
             id="path7"
             style="stroke-width:55.80871914;stroke-miterlimit:4;stroke-dasharray:none;stroke:#c2927b;stroke-opacity:1" />
          <path
             class="st1"
             d="m 1122.1,1317.2 -17.6,-211.4"
             id="path9"
             style="stroke-width:55.80871914;stroke-miterlimit:4;stroke-dasharray:none;stroke:#c2927b;stroke-opacity:1" />
          <path
             class="st1"
             d="m 1253.3,1233.9 c 4.4,-35 8.6,-69.4 11.1,-92.1 7,-64 19,-93.1 19,-93.1"
             id="path11"
             style="stroke-width:55.80871914;stroke-miterlimit:4;stroke-dasharray:none;stroke:#c2927b;stroke-opacity:1" />
          <path
             class="st1"
             d="m 1313.5,1181.6 18,172.2 c 0,0 70,-6.2 82,68.9 l -126.5,9.4"
             id="path13"
             style="stroke-width:55.80871914;stroke-miterlimit:4;stroke-dasharray:none;stroke:#c2927b;stroke-opacity:1" />
          <path
             class="st1"
             d="m 942.4,1388.9 -137,-17 c 0,0 138,-8.8 124,-173.4"
             id="path15"
             style="stroke-width:55.80871914;stroke-miterlimit:4;stroke-dasharray:none;stroke:#c2927b;stroke-opacity:1" />
          <path
             class="st1"
             d="m 589,1293.7 c 0,0 -290.3,-78.6 -290.3,-290.3 0,0 142.7,214.6 308.7,184.5"
             id="path17"
             style="stroke-width:55.80871914;stroke-miterlimit:4;stroke-dasharray:none;stroke:#c2927b;stroke-opacity:1" />
          <path
             class="st1"
             d="m 1146.4,712.5 c 0,0 53.7,86.5 230.4,81.3"
             id="path19"
             style="stroke-width:55.80871914;stroke-miterlimit:4;stroke-dasharray:none;stroke:#c2927b;stroke-opacity:1" />
        </g>
      </g>
    </g>
    <g
       id="g1300"
       transform="matrix(1.8404646,0,0,1.8404646,191.20081,-287.977)"
       style="stroke:#000000;stroke-width:0;stroke-miterlimit:4;stroke-dasharray:none;stroke-opacity:1">
      <g
         id="g1125"
         transform="matrix(-0.06318138,0,0,0.06318138,93.758484,153.05695)"
         style="fill:#c2927b;fill-opacity:1;stroke:#c2927b;stroke-width:6.82601;stroke-miterlimit:4;stroke-dasharray:none;stroke-opacity:1">
        <path
           d="m 1294.7336,555.91102 -0.7153,-27.2205 c 9.1984,-11.20662 13.3059,-24.36017 11.7695,-38.21463 10.9463,-26.55966 9.7792,-67.44216 8.3496,-81.32555 -0.5551,-5.38914 -3.8204,-9.96947 -8.7345,-12.25462 -4.9186,-2.28516 -10.5324,-1.82902 -15.0126,1.2249 l -1.7656,1.20266 c -13.6509,9.29972 -25.6018,20.62092 -35.598,33.70884 -13.7087,-3.61464 -28.2351,-3.61464 -41.9438,0 -9.9962,-13.08792 -21.9493,-24.40912 -35.5969,-33.70773 l -1.7644,-1.20266 c -4.4814,-3.05392 -10.0952,-3.51228 -15.0149,-1.2249 -4.9141,2.28404 -8.1794,6.86437 -8.7345,12.25351 -1.4285,13.8845 -2.5922,54.77034 8.3507,81.32555 -1.8146,16.35989 4.251,31.73742 17.2688,44.08884 -3.4733,6.95893 -10.0273,19.43606 -18.1221,31.77079 -8.4642,0.38605 -24.8653,2.45538 -44.3926,11.63828 -31.3069,14.72113 -57.3514,41.07386 -77.4094,78.32725 -40.2005,74.65698 -46.44073,132.06181 -47.32186,152.15206 -14.58874,1.91801 15.79186,-3.21582 -18.33302,4.29382 -86.07387,18.94099 -81.78135,33.9027 -82.18075,46.65686 -0.23808,7.57306 5.67847,13.65194 11.36021,18.46368 8.56545,7.25376 22.75975,10.90467 30.22318,11.88805 17.79039,2.34408 30.19066,-0.37574 47.72985,-3.87467 8.98821,-1.80566 15.51214,-9.76143 15.51214,-18.91874 0,-1.07583 -0.0901,-2.15499 -0.2659,-3.18966 -0.10903,-0.65194 -0.25032,-1.29054 -0.41942,-1.91468 l 14.64717,-0.41551 1.1949,2.81695 c 4.607,10.85728 15.2017,17.98643 26.9946,18.16222 l 141.5885,2.11271 c 0.042,0 0.083,10e-4 0.1246,10e-4 2.7447,0 5.3157,-1.34951 6.8744,-3.61464 1.582,-2.29962 1.9102,-5.23784 0.8733,-7.82894 -4.9207,-12.29913 -14.1481,-21.83916 -25.4927,-27.24388 6.7431,-10.92848 14.4797,-25.29248 19.5752,-40.46863 l 29.4923,67.78037 c 5.1221,11.77067 16.2531,19.70642 29.0517,20.71104 l 43.458,3.40771 c 0.217,0.0167 0.4362,0.0256 0.6531,0.0256 2.3975,0 4.6927,-1.03355 6.2825,-2.85478 1.7356,-1.98699 2.4298,-4.67711 1.8713,-7.25487 l -0.4172,-1.92914 c -0.9367,-4.31888 -2.551,-8.35629 -4.6893,-12.03768 0,0 17.5291,2.01926 17.8495,2.01926 2.2463,0 4.4146,-0.90784 5.9955,-2.54216 1.8068,-1.86684 2.6412,-4.46907 2.2551,-7.03904 l -0.5863,-3.91725 c -2.2351,-14.89913 -12.387,-27.44079 -26.4929,-32.73092 l -4.4257,-1.65991 -4.2699,-96.06225 c 5.8909,-8.47644 23.8607,-37.40803 36.7973,-91.14482 13.0634,-54.26635 -6.8455,-76.83978 -16.4434,-84.23929 z M 1175.14,490.60049 c 0.2559,-1.61429 0.032,-3.26753 -0.6419,-4.75499 -8.4397,-18.61057 -9.8248,-52.6376 -8.1516,-72.55429 13.553,9.27747 25.2202,20.79782 34.6823,34.24509 2.145,3.04614 6.0489,4.30108 9.5657,3.07951 13.8388,-4.81396 29.0829,-4.81285 42.9218,0 3.5167,1.22602 7.4228,-0.0323 9.5656,-3.07951 9.4621,-13.44615 21.1304,-24.96762 34.6823,-34.2462 1.6744,19.91335 0.2892,53.94149 -8.1516,72.5554 -0.6731,1.48746 -0.8978,3.1407 -0.6408,4.75388 2.1372,13.45839 -3.2119,25.33364 -15.8971,35.29532 -18.1311,14.23829 -30.132,23.47236 -37.0053,28.71243 -2.3641,1.8012 -5.6639,1.8012 -8.0259,0 -6.8387,-5.21336 -18.8119,-14.4263 -37.0053,-28.71243 -12.6862,-9.96056 -18.0342,-21.83581 -15.8982,-35.29421 z m 119.8117,145.64481 c -14.3863,59.75896 -35.3843,87.07737 -35.579,87.32769 -1.2461,1.57425 -1.8825,3.54456 -1.7935,5.54935 l 4.6449,104.48418 c 0.148,3.33984 2.2751,6.26805 5.4047,7.44178 l 9.5857,3.59461 c 6.11,2.29183 10.9796,6.85547 13.7098,12.58283 l -32.8311,-3.81713 -37.003,-103.39166 13.6353,-84.7377 c 0.9044,-5.61277 4.8273,-10.1853 10.2387,-11.93088 3.8349,-1.23826 7.9224,-0.90338 11.507,0.94232 3.5846,1.84459 6.2313,4.97639 7.4517,8.81688 1.3974,4.39119 6.0912,6.81987 10.4813,5.42252 4.3912,-1.39735 6.8187,-6.09004 5.4225,-10.48013 -2.5766,-8.10151 -8.1594,-14.70555 -15.718,-18.5961 -7.5574,-3.89055 -16.1774,-4.5959 -24.2678,-1.98588 -11.4124,3.68139 -19.6853,13.32266 -21.5899,25.16231 l -13.9769,86.85487 c -0.2236,1.38956 -0.092,2.8125 0.3816,4.13753 l 39.4718,110.28941 c 1.0692,2.98717 3.7404,5.1099 6.8922,5.47592 7.1125,0.82662 13.3383,4.63818 17.3334,10.212 l -30.1521,-2.36414 c -6.6329,-0.52067 -12.4003,-4.63262 -15.0549,-10.73156 l -51.2836,-117.86358 c -4.7517,-10.91846 -5.4837,-23.21425 -2.0626,-34.62112 5.6227,-18.74185 2.8047,-38.94557 -7.7277,-55.43341 l -12.1868,-19.0745 c -2.4821,-3.88387 -7.6409,-5.01866 -11.5237,-2.53881 -3.8828,2.48096 -5.0198,7.64092 -2.5388,11.52368 l 12.1868,19.0745 c 7.9146,12.38813 10.0317,27.57096 5.8074,41.65349 -1.4952,4.98306 -2.3819,10.09519 -2.6923,15.22733 -16.6459,-8.86805 -35.5535,-11.65608 -55.558,-8.05034 -19.4762,3.51007 -33.1504,11.86635 -33.7234,12.22014 -3.9183,2.42311 -5.1321,7.56527 -2.709,11.48475 2.422,3.91948 7.5631,5.13103 11.4848,2.71015 0.4472,-0.27814 44.4148,-26.83001 82.6072,2.82918 0.8655,3.282 1.9669,6.51281 3.3331,9.65351 l 10.5013,24.13433 c -1.7456,22.03385 -15.2852,46.59428 -25.0533,61.72815 -2.9048,-0.29704 -5.8653,-0.35823 -8.8592,-0.15019 l -52.4039,3.63912 c -4.597,0.3193 -8.0648,4.30442 -7.7466,8.90143 0.3204,4.59813 4.3088,8.06258 8.9025,7.7455 l 52.404,-3.63912 c 10.1975,-0.70646 19.8688,3.07506 26.7721,9.95835 l -126.0196,-1.88019 c -5.19,-0.0779 -9.8537,-3.21636 -11.8819,-7.99471 -3.9834,-18.17371 -23.32105,-12.24351 -23.32105,-12.24351 l -28.98559,2.30016 c -0.003,0 -0.007,0.002 -0.01,0.002 -11.43247,1.47078 -16.55846,3.29932 -32.62353,1.66611 -4.58478,-0.46615 -8.67893,2.87258 -9.14619,7.45735 -0.46616,4.58478 2.87257,8.67893 7.45735,9.14508 16.85943,1.71554 21.65722,0.18739 36.48404,-1.72173 1.39513,-0.17133 5.12546,0.25946 5.36243,1.67795 0.59989,0.98014 0.95752,2.03851 0.05,3.84066 -0.55594,1.10395 -2.98979,2.0445 -4.20134,2.28703 -40.94814,8.16827 -57.85347,1.44763 -67.30561,-6.55709 -1.8012,-1.5253 -3.56409,-4.70643 -3.24538,-5.86577 0.38608,-0.38661 0.26451,-14.04052 69.8005,-30.66364 43.92417,-9.67354 23.60869,-4.90573 24.05259,-4.95802 4.31778,-0.50509 7.52518,-4.241 7.36948,-8.58546 -0.023,-0.62748 -1.6955,-63.76411 45.4461,-151.31209 30.656,-56.93645 70.1256,-74.06845 93.0907,-79.15832 -0.326,0.36936 -0.6498,0.7454 -0.978,1.10698 -3.0917,3.41661 -2.8303,8.69227 0.5864,11.78513 1.5976,1.4463 3.6001,2.15833 5.5971,2.15833 2.2741,0 4.5414,-0.92563 6.1891,-2.74464 14.7044,-16.24419 27.4608,-39.22259 33.9937,-51.98675 13.7888,10.78273 23.2821,18.08099 29.0873,22.50667 4.1598,3.17074 9.1429,4.755 14.1282,4.755 4.983,0 9.9694,-1.58537 14.1292,-4.755 6.1713,-4.70493 16.4567,-12.61508 31.5294,-24.41802 l 0.7554,28.78141 c 0.1179,4.53248 3.8294,8.12487 8.3363,8.12487 0.073,0 0.149,-0.001 0.2236,-0.002 2.0471,-0.0534 3.8994,-0.84331 5.3179,-2.10381 5.5093,9.63014 10.004,27.25833 2.6067,57.98446 z"
           id="path1070"
           style="fill:#c2927b;fill-opacity:1;stroke:#c2927b;stroke-width:6.82601;stroke-miterlimit:4;stroke-dasharray:none;stroke-opacity:1"
           sodipodi:nodetypes="cccccccccccccccccccccsscsccccccscccccccsccccscccsccccccccccccccsccccccccccccccccccsccccccccccccccccccccccccccccccccccccccsccccscscccccccsscccscccscccc" />
        <g
           id="g1072"
           style="fill:#c2927b;fill-opacity:1;stroke:#c2927b;stroke-width:6.82601;stroke-miterlimit:4;stroke-dasharray:none;stroke-opacity:1" />
        <g
           id="g1074"
           style="fill:#c2927b;fill-opacity:1;stroke:#c2927b;stroke-width:6.82601;stroke-miterlimit:4;stroke-dasharray:none;stroke-opacity:1" />
        <g
           id="g1076"
           style="fill:#c2927b;fill-opacity:1;stroke:#c2927b;stroke-width:6.82601;stroke-miterlimit:4;stroke-dasharray:none;stroke-opacity:1" />
        <g
           id="g1078"
           style="fill:#c2927b;fill-opacity:1;stroke:#c2927b;stroke-width:6.82601;stroke-miterlimit:4;stroke-dasharray:none;stroke-opacity:1" />
        <g
           id="g1080"
           style="fill:#c2927b;fill-opacity:1;stroke:#c2927b;stroke-width:6.82601;stroke-miterlimit:4;stroke-dasharray:none;stroke-opacity:1" />
        <g
           id="g1082"
           style="fill:#c2927b;fill-opacity:1;stroke:#c2927b;stroke-width:6.82601;stroke-miterlimit:4;stroke-dasharray:none;stroke-opacity:1" />
        <g
           id="g1084"
           style="fill:#c2927b;fill-opacity:1;stroke:#c2927b;stroke-width:6.82601;stroke-miterlimit:4;stroke-dasharray:none;stroke-opacity:1" />
        <g
           id="g1086"
           style="fill:#c2927b;fill-opacity:1;stroke:#c2927b;stroke-width:6.82601;stroke-miterlimit:4;stroke-dasharray:none;stroke-opacity:1" />
        <g
           id="g1088"
           style="fill:#c2927b;fill-opacity:1;stroke:#c2927b;stroke-width:6.82601;stroke-miterlimit:4;stroke-dasharray:none;stroke-opacity:1" />
        <g
           id="g1090"
           style="fill:#c2927b;fill-opacity:1;stroke:#c2927b;stroke-width:6.82601;stroke-miterlimit:4;stroke-dasharray:none;stroke-opacity:1" />
        <g
           id="g1092"
           style="fill:#c2927b;fill-opacity:1;stroke:#c2927b;stroke-width:6.82601;stroke-miterlimit:4;stroke-dasharray:none;stroke-opacity:1" />
        <g
           id="g1094"
           style="fill:#c2927b;fill-opacity:1;stroke:#c2927b;stroke-width:6.82601;stroke-miterlimit:4;stroke-dasharray:none;stroke-opacity:1" />
        <g
           id="g1096"
           style="fill:#c2927b;fill-opacity:1;stroke:#c2927b;stroke-width:6.82601;stroke-miterlimit:4;stroke-dasharray:none;stroke-opacity:1" />
        <g
           id="g1098"
           style="fill:#c2927b;fill-opacity:1;stroke:#c2927b;stroke-width:6.82601;stroke-miterlimit:4;stroke-dasharray:none;stroke-opacity:1" />
        <g
           id="g1100"
           style="fill:#c2927b;fill-opacity:1;stroke:#c2927b;stroke-width:6.82601;stroke-miterlimit:4;stroke-dasharray:none;stroke-opacity:1" />
      </g>
      <g
         id="g1377"
         transform="matrix(0.10275755,0,0,0.10275755,-55.439578,161.70231)"
         style="fill:#c2927b;fill-opacity:1;stroke:#c2927b;stroke-width:0;stroke-miterlimit:4;stroke-dasharray:none;stroke-opacity:1">
        <path
           d="m 214.774,408.826 c 9.418,0 15.84,-2.965 21.506,-5.582 5.814,-2.685 10.835,-5.003 19.721,-5.003 8.886,0 13.907,2.319 19.72,5.003 5.665,2.617 12.088,5.582 21.506,5.582 10.836,0 21.492,-4.678 28.505,-12.513 4.903,-5.478 10.405,-15.098 8.77,-29.816 -1.915,-17.226 -11.535,-25.227 -18.559,-31.069 -3.245,-2.699 -6.047,-5.029 -7.6,-7.696 -0.526,-0.903 -1.436,-3.338 -2.315,-5.692 -5.282,-14.141 -16.274,-43.565 -50.026,-43.565 -16.571,0 -29.848,7.245 -39.464,21.535 -2.317,3.443 -1.404,8.113 2.039,10.431 3.442,2.317 8.113,1.404 10.431,-2.039 6.839,-10.163 15.417,-14.896 26.995,-14.896 21.521,0 29.559,16.695 35.947,33.794 1.251,3.346 2.238,5.989 3.408,7.999 2.889,4.959 7,8.378 10.976,11.685 6.432,5.349 11.986,9.969 13.231,21.173 0.821,7.385 -0.872,13.485 -5.03,18.132 -4.145,4.631 -10.776,7.507 -17.306,7.507 -6.116,0 -10.127,-1.852 -15.204,-4.197 -6.163,-2.846 -13.833,-6.388 -26.022,-6.388 -12.189,0 -19.859,3.542 -26.022,6.388 -5.078,2.345 -9.089,4.197 -15.205,4.197 -6.53,0 -13.161,-2.876 -17.305,-7.507 -4.159,-4.646 -5.852,-10.746 -5.031,-18.132 1.245,-11.205 6.8,-15.824 13.231,-21.173 3.976,-3.307 8.087,-6.726 10.976,-11.685 2.089,-3.586 0.876,-8.187 -2.71,-10.276 -3.585,-2.088 -8.186,-0.876 -10.276,2.71 -1.553,2.667 -4.355,4.997 -7.6,7.696 -7.024,5.842 -16.644,13.843 -18.558,31.07 -1.635,14.717 3.866,24.337 8.769,29.815 7.01,7.834 17.666,12.512 28.502,12.512 z"
           id="path1365"
           style="fill:#c2927b;fill-opacity:1;stroke:#c2927b;stroke-width:0;stroke-miterlimit:4;stroke-dasharray:none;stroke-opacity:1" />
        <path
           d="m 145.148,260.721 c -14.15,8.17 -17.131,28.607 -6.785,46.528 7.54,13.06 19.775,20.657 31.335,20.657 4.303,0 8.513,-1.053 12.351,-3.269 14.15,-8.17 17.131,-28.607 6.785,-46.528 C 178.489,260.19 159.3,252.552 145.148,260.721 Z m 29.387,50.9 c -6.624,3.822 -17.228,-1.62 -23.155,-11.887 -5.928,-10.268 -5.34,-22.173 1.283,-25.997 1.442,-0.832 3.071,-1.226 4.802,-1.226 6.216,0 13.716,5.081 18.353,13.113 5.928,10.268 5.34,22.173 -1.283,25.997 z"
           id="path1367"
           style="fill:#c2927b;fill-opacity:1;stroke:#c2927b;stroke-width:0;stroke-miterlimit:4;stroke-dasharray:none;stroke-opacity:1" />
        <path
           d="m 200.579,265.603 c 5.742,4.537 12.3,6.919 18.715,6.919 2.249,-10e-4 4.481,-0.293 6.653,-0.889 8.366,-2.295 15.197,-8.903 18.74,-18.13 3.287,-8.56 3.608,-18.704 0.904,-28.562 -2.704,-9.859 -8.156,-18.419 -15.35,-24.104 -7.755,-6.127 -16.998,-8.325 -25.368,-6.031 -16.642,4.565 -25.454,25.511 -19.644,46.692 2.704,9.86 8.156,18.42 15.35,24.105 z m 8.269,-56.302 c 0.934,-0.256 1.854,-0.368 2.748,-0.368 3.966,0 7.424,2.195 9.326,3.697 4.63,3.658 8.338,9.594 10.174,16.286 1.836,6.693 1.676,13.69 -0.44,19.198 -1.065,2.772 -3.609,7.631 -8.685,9.023 -5.076,1.392 -9.744,-1.487 -12.073,-3.329 -4.63,-3.658 -8.338,-9.595 -10.174,-16.287 -3.557,-12.964 0.621,-25.888 9.124,-28.22 z"
           id="path1369"
           style="fill:#c2927b;fill-opacity:1;stroke:#c2927b;stroke-width:0;stroke-miterlimit:4;stroke-dasharray:none;stroke-opacity:1" />
        <path
           d="m 354.268,325.204 c 7.769,-3.403 14.647,-9.78 19.368,-17.955 10.346,-17.921 7.366,-38.358 -6.784,-46.528 -14.15,-8.169 -33.339,-0.532 -43.687,17.388 -10.346,17.921 -7.365,38.358 6.785,46.528 3.685,2.128 7.879,3.196 12.251,3.196 3.957,0 8.061,-0.874 12.067,-2.629 z m -16.803,-13.583 c -6.624,-3.824 -7.212,-15.729 -1.284,-25.997 5.929,-10.268 16.533,-15.71 23.156,-11.887 6.623,3.824 7.211,15.729 1.283,25.997 -3.084,5.342 -7.597,9.607 -12.382,11.702 -2.355,1.033 -6.887,2.429 -10.773,0.185 z"
           id="path1371"
           style="fill:#c2927b;fill-opacity:1;stroke:#c2927b;stroke-width:0;stroke-miterlimit:4;stroke-dasharray:none;stroke-opacity:1" />
        <path
           d="m 292.654,272.52 c 14.617,0 29.069,-12.619 34.117,-31.021 5.81,-21.181 -3.002,-42.127 -19.644,-46.692 -8.365,-2.295 -17.611,-0.098 -25.368,6.031 -7.195,5.685 -12.646,14.245 -15.35,24.104 -5.81,21.181 3.002,42.127 19.643,46.692 2.184,0.598 4.393,0.886 6.602,0.886 z m -11.751,-43.603 c 1.836,-6.692 5.544,-12.628 10.175,-16.286 1.901,-1.503 5.358,-3.697 9.325,-3.697 0.894,0 1.814,0.112 2.748,0.368 8.503,2.332 12.682,15.257 9.127,28.221 -3.557,12.965 -13.749,21.951 -22.249,19.616 -8.504,-2.333 -12.682,-15.256 -9.126,-28.222 z"
           id="path1373"
           style="fill:#c2927b;fill-opacity:1;stroke:#c2927b;stroke-width:0;stroke-miterlimit:4;stroke-dasharray:none;stroke-opacity:1" />
        <path
           d="M 500.133,205.7 457.4,177.243 v -72.059 c 0,-9.669 -7.866,-17.535 -17.535,-17.535 H 417.81 c -9.669,0 -17.535,7.866 -17.535,17.535 v 34.017 L 270.768,52.958 c -8.971,-5.973 -20.565,-5.972 -29.536,0 l -120.384,80.167 c -3.454,2.301 -4.39,6.966 -2.09,10.421 2.299,3.454 6.965,4.389 10.421,2.09 L 249.563,65.469 c 3.91,-2.604 8.964,-2.604 12.875,0 L 491.802,218.21 c 5.33,3.548 6.778,10.773 3.229,16.103 -3.363,5.262 -10.96,6.796 -16.103,3.228 L 260.165,91.861 c -2.523,-1.679 -5.808,-1.679 -8.331,0 L 33.072,237.542 c -5.329,3.549 -12.554,2.101 -16.103,-3.227 -3.549,-5.331 -2.101,-12.555 3.229,-16.104 l 83.961,-55.913 c 3.454,-2.301 4.39,-6.966 2.09,-10.421 -2.301,-3.455 -6.966,-4.391 -10.421,-2.09 L 11.866,205.7 c -12.226,8.142 -15.55,24.715 -7.407,36.945 8.144,12.227 24.716,15.548 36.944,7.407 l 13.196,-8.788 v 199.712 c 0,12.432 10.113,22.545 22.545,22.545 h 269.779 c 4.151,0 7.515,-3.365 7.515,-7.515 0,-4.15 -3.364,-7.515 -7.515,-7.515 H 77.144 c -4.144,0 -7.515,-3.371 -7.515,-7.515 V 231.255 L 256,107.145 442.37,231.254 v 209.722 c 0,4.144 -3.371,7.515 -7.515,7.515 h -57.872 c -4.151,0 -7.515,3.365 -7.515,7.515 0,4.15 3.364,7.515 7.515,7.515 h 57.872 c 12.431,0 22.545,-10.113 22.545,-22.545 V 241.263 l 13.198,8.789 c 11.793,8.174 29.226,4.676 36.943,-7.408 8.142,-12.229 4.819,-28.802 -7.408,-36.944 z M 415.305,105.184 c 0,-1.381 1.123,-2.505 2.505,-2.505 h 22.056 c 1.382,0 2.505,1.124 2.505,2.505 v 62.05 L 415.305,149.21 Z"
           id="path1375"
           style="fill:#c2927b;fill-opacity:1;stroke:#c2927b;stroke-width:0;stroke-miterlimit:4;stroke-dasharray:none;stroke-opacity:1" />
      </g>
    </g>
  </g>
  <style
     id="style2">
        .st0{fill:#fff}.st1{fill:none;stroke:#231f20;stroke-width:50;stroke-linecap:round;stroke-linejoin:round;stroke-miterlimit:10}
    </style>
  <style
     id="style2-3">
        .st0{fill:#fff}.st1{fill:none;stroke:#231f20;stroke-width:50;stroke-linecap:round;stroke-linejoin:round;stroke-miterlimit:10}
    </style>
</svg>
