<?xml version="1.0" encoding="UTF-8" standalone="no"?>
<svg
   xmlns:dc="http://purl.org/dc/elements/1.1/"
   xmlns:cc="http://creativecommons.org/ns#"
   xmlns:rdf="http://www.w3.org/1999/02/22-rdf-syntax-ns#"
   xmlns:svg="http://www.w3.org/2000/svg"
   xmlns="http://www.w3.org/2000/svg"
   xmlns:sodipodi="http://sodipodi.sourceforge.net/DTD/sodipodi-0.dtd"
   xmlns:inkscape="http://www.inkscape.org/namespaces/inkscape"
   height="512pt"
   viewBox="-21 0 512 512"
   width="512pt"
   version="1.1"
   id="svg1012"
   sodipodi:docname="share.svg"
   inkscape:export-filename="/home/iqsoft/git/StrayAnimals/WebSite/public/share.png"
   inkscape:export-xdpi="97.580002"
   inkscape:export-ydpi="97.580002"
   inkscape:version="1.0.2 (e86c870879, 2021-01-15)">
  <metadata
     id="metadata1018">
    <rdf:RDF>
      <cc:Work
         rdf:about="">
        <dc:format>image/svg+xml</dc:format>
        <dc:type
           rdf:resource="http://purl.org/dc/dcmitype/StillImage" />
      </cc:Work>
    </rdf:RDF>
  </metadata>
  <defs
     id="defs1016" />
  <sodipodi:namedview
     pagecolor="#ffffff"
     bordercolor="#666666"
     borderopacity="1"
     objecttolerance="10"
     gridtolerance="10"
     guidetolerance="10"
     inkscape:pageopacity="0"
     inkscape:pageshadow="2"
     inkscape:window-width="1920"
     inkscape:window-height="1016"
     id="namedview1014"
     showgrid="false"
     inkscape:zoom="1.2626953"
     inkscape:cx="341.33333"
     inkscape:cy="341.33333"
     inkscape:window-x="0"
     inkscape:window-y="27"
     inkscape:window-maximized="1"
     inkscape:current-layer="svg1012" />
  <path
     d="m453.332031 85.332031c0 38.292969-31.039062 69.335938-69.332031 69.335938s-69.332031-31.042969-69.332031-69.335938c0-38.289062 31.039062-69.332031 69.332031-69.332031s69.332031 31.042969 69.332031 69.332031zm0 0"
     id="path996"
     style="fill:#ffffff;fill-opacity:1" />
  <path
     d="m384 170.667969c-47.0625 0-85.332031-38.273438-85.332031-85.335938 0-47.058593 38.269531-85.332031 85.332031-85.332031s85.332031 38.273438 85.332031 85.332031c0 47.0625-38.269531 85.335938-85.332031 85.335938zm0-138.667969c-29.417969 0-53.332031 23.9375-53.332031 53.332031 0 29.398438 23.914062 53.335938 53.332031 53.335938s53.332031-23.9375 53.332031-53.335938c0-29.394531-23.914062-53.332031-53.332031-53.332031zm0 0"
     id="path998"
     style="fill:#ffffff;fill-opacity:1" />
  <path
     d="m453.332031 426.667969c0 38.289062-31.039062 69.332031-69.332031 69.332031s-69.332031-31.042969-69.332031-69.332031c0-38.292969 31.039062-69.335938 69.332031-69.335938s69.332031 31.042969 69.332031 69.335938zm0 0"
     id="path1000"
     style="fill:#ffffff;fill-opacity:1" />
  <path
     d="m384 512c-47.0625 0-85.332031-38.273438-85.332031-85.332031 0-47.0625 38.269531-85.335938 85.332031-85.335938s85.332031 38.273438 85.332031 85.335938c0 47.058593-38.269531 85.332031-85.332031 85.332031zm0-138.667969c-29.417969 0-53.332031 23.9375-53.332031 53.335938 0 29.394531 23.914062 53.332031 53.332031 53.332031s53.332031-23.9375 53.332031-53.332031c0-29.398438-23.914062-53.335938-53.332031-53.335938zm0 0"
     id="path1002"
     style="fill:#ffffff;fill-opacity:1" />
  <path
     d="m154.667969 256c0 38.292969-31.042969 69.332031-69.335938 69.332031-38.289062 0-69.332031-31.039062-69.332031-69.332031s31.042969-69.332031 69.332031-69.332031c38.292969 0 69.335938 31.039062 69.335938 69.332031zm0 0"
     id="path1004"
     style="fill:#ffffff;fill-opacity:1" />
  <path
     d="m85.332031 341.332031c-47.058593 0-85.332031-38.269531-85.332031-85.332031s38.273438-85.332031 85.332031-85.332031c47.0625 0 85.335938 38.269531 85.335938 85.332031s-38.273438 85.332031-85.335938 85.332031zm0-138.664062c-29.417969 0-53.332031 23.933593-53.332031 53.332031s23.914062 53.332031 53.332031 53.332031c29.421875 0 53.335938-23.933593 53.335938-53.332031s-23.914063-53.332031-53.335938-53.332031zm0 0"
     id="path1006"
     style="fill:#ffffff;fill-opacity:1" />
  <path
     d="m135.703125 245.761719c-7.425781 0-14.636719-3.863281-18.5625-10.773438-5.824219-10.21875-2.238281-23.253906 7.980469-29.101562l197.949218-112.851563c10.21875-5.867187 23.253907-2.28125 29.101563 7.976563 5.824219 10.21875 2.238281 23.253906-7.980469 29.101562l-197.953125 112.851563c-3.328125 1.898437-6.953125 2.796875-10.535156 2.796875zm0 0"
     id="path1008"
     style="fill:#ffffff;fill-opacity:1" />
  <path
     d="m333.632812 421.761719c-3.585937 0-7.210937-.898438-10.539062-2.796875l-197.953125-112.851563c-10.21875-5.824219-13.800781-18.859375-7.976563-29.101562 5.800782-10.238281 18.855469-13.84375 29.097657-7.976563l197.953125 112.851563c10.21875 5.824219 13.800781 18.859375 7.976562 29.101562-3.945312 6.910157-11.15625 10.773438-18.558594 10.773438zm0 0"
     id="path1010"
     style="fill:#ffffff;fill-opacity:1" />
</svg>
