<?xml version='1.0' encoding='utf-8'?>
<mlt LC_NUMERIC="C" producer="main_bin" version="7.5.0" root="/home/iqsoft/git/StrayAnimals/videos">
 <profile frame_rate_num="24000" sample_aspect_num="1" display_aspect_den="13" colorspace="601" progressive="1" description="1080x2340 23.98fps" display_aspect_num="6" frame_rate_den="1001" width="1080" height="2340" sample_aspect_den="1"/>
 <producer id="producer0" in="00:00:00.000" out="00:01:00.751">
  <property name="length">1457</property>
  <property name="eof">pause</property>
  <property name="resource">1munitevideo.mp4</property>
  <property name="audio_index">0</property>
  <property name="video_index">1</property>
  <property name="mute_on_pause">0</property>
  <property name="mlt_service">avformat-novalidate</property>
  <property name="seekable">1</property>
  <property name="aspect_ratio">1</property>
  <property name="kdenlive:clipname"/>
  <property name="kdenlive:folderid">-1</property>
  <property name="kdenlive:id">2</property>
  <property name="kdenlive:file_size">27869304</property>
  <property name="kdenlive:file_hash">38c65d765a755e6345a9de1de46d90b5</property>
  <property name="kdenlive:audio_max0">1</property>
  <property name="meta.media.nb_streams">2</property>
  <property name="meta.media.0.stream.type">audio</property>
  <property name="meta.media.0.codec.sample_fmt">fltp</property>
  <property name="meta.media.0.codec.sample_rate">48000</property>
  <property name="meta.media.0.codec.channels">1</property>
  <property name="meta.media.0.codec.name">aac</property>
  <property name="meta.media.0.codec.long_name">AAC (Advanced Audio Coding)</property>
  <property name="meta.media.0.codec.bit_rate">288020</property>
  <property name="meta.attr.0.stream.creation_time.markup">2022-02-21T20:35:13.000000Z</property>
  <property name="meta.attr.0.stream.language.markup">eng</property>
  <property name="meta.attr.0.stream.handler_name.markup">SoundHandle</property>
  <property name="meta.media.1.stream.type">video</property>
  <property name="meta.media.1.stream.frame_rate">23.9437</property>
  <property name="meta.media.1.stream.sample_aspect_ratio">1</property>
  <property name="meta.media.1.codec.width">1080</property>
  <property name="meta.media.1.codec.height">2340</property>
  <property name="meta.media.1.codec.rotate">0</property>
  <property name="meta.media.1.codec.pix_fmt">yuv420p</property>
  <property name="meta.media.1.codec.sample_aspect_ratio">0</property>
  <property name="meta.media.1.codec.colorspace">601</property>
  <property name="meta.media.1.codec.color_trc">6</property>
  <property name="meta.media.1.codec.name">h264</property>
  <property name="meta.media.1.codec.long_name">H.264 / AVC / MPEG-4 AVC / MPEG-4 part 10</property>
  <property name="meta.media.1.codec.bit_rate">3327581</property>
  <property name="meta.attr.1.stream.creation_time.markup">2022-02-21T20:35:13.000000Z</property>
  <property name="meta.attr.1.stream.language.markup">eng</property>
  <property name="meta.attr.1.stream.handler_name.markup">VideoHandle</property>
  <property name="meta.attr.major_brand.markup">mp42</property>
  <property name="meta.attr.minor_version.markup">0</property>
  <property name="meta.attr.compatible_brands.markup">isommp42</property>
  <property name="meta.attr.creation_time.markup">2022-02-21T20:35:13.000000Z</property>
  <property name="meta.attr.com.android.version.markup">11</property>
  <property name="meta.media.sample_aspect_num">1</property>
  <property name="meta.media.sample_aspect_den">1</property>
  <property name="meta.media.frame_rate_num">431</property>
  <property name="meta.media.frame_rate_den">18</property>
  <property name="meta.media.colorspace">601</property>
  <property name="meta.media.color_trc">6</property>
  <property name="meta.media.has_b_frames">0</property>
  <property name="meta.media.width">1080</property>
  <property name="meta.media.height">2340</property>
  <property name="meta.media.color_range">mpeg</property>
 </producer>
 <producer id="producer1" in="00:00:00.000" out="00:00:20.979">
  <property name="length">504</property>
  <property name="eof">pause</property>
  <property name="resource">22-02-21-21-41-30.mp4</property>
  <property name="audio_index">1</property>
  <property name="video_index">0</property>
  <property name="mute_on_pause">0</property>
  <property name="mlt_service">avformat-novalidate</property>
  <property name="seekable">1</property>
  <property name="aspect_ratio">1</property>
  <property name="kdenlive:clipname"/>
  <property name="kdenlive:folderid">-1</property>
  <property name="kdenlive:id">4</property>
  <property name="kdenlive:file_size">10695512</property>
  <property name="kdenlive:file_hash">db65bfcb438a302969ef9812f90f236e</property>
  <property name="kdenlive:audio_max1">1</property>
  <property name="meta.media.nb_streams">2</property>
  <property name="meta.media.0.stream.type">video</property>
  <property name="meta.media.0.stream.frame_rate">24.0461</property>
  <property name="meta.media.0.stream.sample_aspect_ratio">1</property>
  <property name="meta.media.0.codec.width">1080</property>
  <property name="meta.media.0.codec.height">2340</property>
  <property name="meta.media.0.codec.rotate">0</property>
  <property name="meta.media.0.codec.pix_fmt">yuv420p</property>
  <property name="meta.media.0.codec.sample_aspect_ratio">0</property>
  <property name="meta.media.0.codec.colorspace">601</property>
  <property name="meta.media.0.codec.color_trc">6</property>
  <property name="meta.media.0.codec.name">h264</property>
  <property name="meta.media.0.codec.long_name">H.264 / AVC / MPEG-4 AVC / MPEG-4 part 10</property>
  <property name="meta.media.0.codec.bit_rate">3632017</property>
  <property name="meta.attr.0.stream.creation_time.markup">2022-02-21T19:41:52.000000Z</property>
  <property name="meta.attr.0.stream.language.markup">eng</property>
  <property name="meta.attr.0.stream.handler_name.markup">VideoHandle</property>
  <property name="meta.media.1.stream.type">audio</property>
  <property name="meta.media.1.codec.sample_fmt">fltp</property>
  <property name="meta.media.1.codec.sample_rate">48000</property>
  <property name="meta.media.1.codec.channels">1</property>
  <property name="meta.media.1.codec.name">aac</property>
  <property name="meta.media.1.codec.long_name">AAC (Advanced Audio Coding)</property>
  <property name="meta.media.1.codec.bit_rate">287948</property>
  <property name="meta.attr.1.stream.creation_time.markup">2022-02-21T19:41:52.000000Z</property>
  <property name="meta.attr.1.stream.language.markup">eng</property>
  <property name="meta.attr.1.stream.handler_name.markup">SoundHandle</property>
  <property name="meta.attr.major_brand.markup">mp42</property>
  <property name="meta.attr.minor_version.markup">0</property>
  <property name="meta.attr.compatible_brands.markup">isommp42</property>
  <property name="meta.attr.creation_time.markup">2022-02-21T19:41:52.000000Z</property>
  <property name="meta.attr.com.android.version.markup">11</property>
  <property name="meta.media.sample_aspect_num">1</property>
  <property name="meta.media.sample_aspect_den">1</property>
  <property name="meta.media.frame_rate_num">529</property>
  <property name="meta.media.frame_rate_den">22</property>
  <property name="meta.media.colorspace">601</property>
  <property name="meta.media.color_trc">6</property>
  <property name="meta.media.has_b_frames">0</property>
  <property name="meta.media.width">1080</property>
  <property name="meta.media.height">2340</property>
  <property name="meta.media.color_range">mpeg</property>
  <property name="meta.media.variable_frame_rate">1</property>
  <property name="meta.media.top_field_first">0</property>
  <property name="meta.media.progressive">1</property>
 </producer>
 <producer id="producer2" in="00:00:00.000" out="00:01:06.965">
  <property name="length">1606</property>
  <property name="eof">pause</property>
  <property name="resource">/home/iqsoft/Downloads/Christaki Zografou.m4a</property>
  <property name="meta.media.nb_streams">1</property>
  <property name="meta.media.0.stream.type">audio</property>
  <property name="meta.media.0.codec.sample_fmt">fltp</property>
  <property name="meta.media.0.codec.sample_rate">48000</property>
  <property name="meta.media.0.codec.channels">1</property>
  <property name="meta.media.0.codec.name">aac</property>
  <property name="meta.media.0.codec.long_name">AAC (Advanced Audio Coding)</property>
  <property name="meta.media.0.codec.bit_rate">63212</property>
  <property name="meta.attr.0.stream.creation_time.markup">2022-02-23T21:43:33.000000Z</property>
  <property name="meta.attr.0.stream.handler_name.markup">Core Media Audio</property>
  <property name="meta.attr.major_brand.markup">M4A </property>
  <property name="meta.attr.minor_version.markup">0</property>
  <property name="meta.attr.compatible_brands.markup">M4A isommp42</property>
  <property name="meta.attr.creation_time.markup">2022-02-23T21:43:33.000000Z</property>
  <property name="meta.attr.title.markup">Christaki Zografou</property>
  <property name="meta.attr.voice-memo-uuid.markup">32FA45B9-224F-4029-8E21-F502F60EC81A</property>
  <property name="meta.attr.encoder.markup">com.apple.VoiceMemos (ILIASP IPHONE (null))</property>
  <property name="seekable">1</property>
  <property name="audio_index">0</property>
  <property name="video_index">-1</property>
  <property name="mute_on_pause">1</property>
  <property name="mlt_service">avformat</property>
  <property name="kdenlive:clipname">betastro.m4a</property>
  <property name="kdenlive:folderid">-1</property>
  <property name="kdenlive:id">3</property>
  <property name="kdenlive:file_size">562206</property>
  <property name="kdenlive:file_hash">bcd926c48bbe017d3b1dcbc31f08b5a8</property>
  <property name="kdenlive:audio_max0">193</property>
 </producer>
 <producer id="producer3" in="00:00:00.000" out="00:00:21.897">
  <property name="length">526</property>
  <property name="eof">pause</property>
  <property name="resource">/home/iqsoft/Downloads/IMG_4686.mov</property>
  <property name="meta.media.nb_streams">4</property>
  <property name="meta.media.0.stream.type">video</property>
  <property name="meta.media.0.stream.frame_rate">29.5256</property>
  <property name="meta.media.0.stream.sample_aspect_ratio">0</property>
  <property name="meta.media.0.codec.width">1920</property>
  <property name="meta.media.0.codec.height">1080</property>
  <property name="meta.media.0.codec.rotate">90</property>
  <property name="meta.media.0.codec.pix_fmt">yuv420p</property>
  <property name="meta.media.0.codec.sample_aspect_ratio">0</property>
  <property name="meta.media.0.codec.colorspace">709</property>
  <property name="meta.media.0.codec.color_trc">1</property>
  <property name="meta.media.0.codec.name">hevc</property>
  <property name="meta.media.0.codec.long_name">HEVC (High Efficiency Video Coding)</property>
  <property name="meta.media.0.codec.bit_rate">7637045</property>
  <property name="meta.attr.0.stream.rotate.markup">90</property>
  <property name="meta.attr.0.stream.creation_time.markup">2022-02-25T11:47:14.000000Z</property>
  <property name="meta.attr.0.stream.handler_name.markup">Core Media Video</property>
  <property name="meta.attr.0.stream.encoder.markup">HEVC</property>
  <property name="meta.media.1.stream.type">audio</property>
  <property name="meta.media.1.codec.sample_fmt">fltp</property>
  <property name="meta.media.1.codec.sample_rate">44100</property>
  <property name="meta.media.1.codec.channels">2</property>
  <property name="meta.media.1.codec.name">aac</property>
  <property name="meta.media.1.codec.long_name">AAC (Advanced Audio Coding)</property>
  <property name="meta.media.1.codec.bit_rate">166314</property>
  <property name="meta.attr.1.stream.creation_time.markup">2022-02-25T11:47:14.000000Z</property>
  <property name="meta.attr.1.stream.handler_name.markup">Core Media Audio</property>
  <property name="meta.attr.major_brand.markup">qt  </property>
  <property name="meta.attr.minor_version.markup">0</property>
  <property name="meta.attr.compatible_brands.markup">qt  </property>
  <property name="meta.attr.creation_time.markup">2022-02-25T11:47:14.000000Z</property>
  <property name="meta.attr.com.apple.quicktime.location.accuracy.horizontal.markup">10.906264</property>
  <property name="meta.attr.com.apple.quicktime.location.ISO6709.markup">+39.6600+020.8217+485.621/</property>
  <property name="meta.attr.com.apple.quicktime.make.markup">Apple</property>
  <property name="meta.attr.com.apple.quicktime.model.markup">iPhone 11</property>
  <property name="meta.attr.com.apple.quicktime.software.markup">15.0.2</property>
  <property name="meta.attr.com.apple.quicktime.creationdate.markup">2022-02-25T13:43:02+0200</property>
  <property name="seekable">1</property>
  <property name="meta.media.sample_aspect_num">1</property>
  <property name="meta.media.sample_aspect_den">1</property>
  <property name="aspect_ratio">1</property>
  <property name="audio_index">1</property>
  <property name="video_index">0</property>
  <property name="mute_on_pause">0</property>
  <property name="mlt_service">avformat-novalidate</property>
  <property name="kdenlive:clipname"/>
  <property name="kdenlive:file_size">22303445</property>
  <property name="kdenlive:folderid">-1</property>
  <property name="meta.media.frame_rate_num">80280</property>
  <property name="meta.media.frame_rate_den">2719</property>
  <property name="meta.media.colorspace">709</property>
  <property name="meta.media.color_trc">1</property>
  <property name="meta.media.has_b_frames">2</property>
  <property name="meta.media.width">1080</property>
  <property name="meta.media.height">1920</property>
  <property name="meta.media.color_range">mpeg</property>
  <property name="kdenlive:id">6</property>
  <property name="kdenlive:file_hash">e0afdd344a5bbe61c25ae672bb494110</property>
  <property name="kdenlive:audio_max1">163</property>
  <property name="meta.media.top_field_first">0</property>
  <property name="meta.media.progressive">1</property>
 </producer>
 <producer id="producer4" in="00:00:00.000" out="00:00:17.601">
  <property name="length">423</property>
  <property name="eof">pause</property>
  <property name="resource">/home/iqsoft/Downloads/Ioannina 3.m4a</property>
  <property name="meta.media.nb_streams">1</property>
  <property name="meta.media.0.stream.type">audio</property>
  <property name="meta.media.0.codec.sample_fmt">fltp</property>
  <property name="meta.media.0.codec.sample_rate">48000</property>
  <property name="meta.media.0.codec.channels">1</property>
  <property name="meta.media.0.codec.name">aac</property>
  <property name="meta.media.0.codec.long_name">AAC (Advanced Audio Coding)</property>
  <property name="meta.media.0.codec.bit_rate">64065</property>
  <property name="meta.attr.0.stream.creation_time.markup">2022-02-25T11:57:16.000000Z</property>
  <property name="meta.attr.0.stream.handler_name.markup">Core Media Audio</property>
  <property name="meta.attr.major_brand.markup">M4A </property>
  <property name="meta.attr.minor_version.markup">0</property>
  <property name="meta.attr.compatible_brands.markup">M4A isommp42</property>
  <property name="meta.attr.creation_time.markup">2022-02-25T11:57:16.000000Z</property>
  <property name="meta.attr.title.markup">Ioannina 3</property>
  <property name="meta.attr.voice-memo-uuid.markup">0884CBD8-5188-4E9E-8B8C-16921A9ED4B3</property>
  <property name="meta.attr.encoder.markup">com.apple.VoiceMemos (ILIASP IPHONE (null))</property>
  <property name="seekable">1</property>
  <property name="audio_index">0</property>
  <property name="video_index">-1</property>
  <property name="mute_on_pause">1</property>
  <property name="mlt_service">avformat</property>
  <property name="kdenlive:clipname"/>
  <property name="kdenlive:folderid">-1</property>
  <property name="kdenlive:id">8</property>
  <property name="kdenlive:file_size">151578</property>
  <property name="kdenlive:file_hash">5a2e86e60228c1fd92a74166a5f6b7a1</property>
  <property name="kdenlive:audio_max0">216</property>
 </producer>
 <producer id="producer5" in="00:00:00.000" out="00:00:29.947">
  <property name="length">719</property>
  <property name="eof">pause</property>
  <property name="resource">/home/iqsoft/Downloads/Ioannina 4.m4a</property>
  <property name="meta.media.nb_streams">1</property>
  <property name="meta.media.0.stream.type">audio</property>
  <property name="meta.media.0.codec.sample_fmt">fltp</property>
  <property name="meta.media.0.codec.sample_rate">48000</property>
  <property name="meta.media.0.codec.channels">1</property>
  <property name="meta.media.0.codec.name">aac</property>
  <property name="meta.media.0.codec.long_name">AAC (Advanced Audio Coding)</property>
  <property name="meta.media.0.codec.bit_rate">62830</property>
  <property name="meta.attr.0.stream.creation_time.markup">2022-02-25T12:11:55.000000Z</property>
  <property name="meta.attr.0.stream.handler_name.markup">Core Media Audio</property>
  <property name="meta.attr.major_brand.markup">M4A </property>
  <property name="meta.attr.minor_version.markup">0</property>
  <property name="meta.attr.compatible_brands.markup">M4A isommp42</property>
  <property name="meta.attr.creation_time.markup">2022-02-25T12:11:55.000000Z</property>
  <property name="meta.attr.title.markup">Ioannina 4</property>
  <property name="meta.attr.voice-memo-uuid.markup">9FF81361-F472-41AA-980F-C2BE551F4D9B</property>
  <property name="meta.attr.encoder.markup">com.apple.VoiceMemos (ILIASP IPHONE (null))</property>
  <property name="seekable">1</property>
  <property name="audio_index">0</property>
  <property name="video_index">-1</property>
  <property name="mute_on_pause">1</property>
  <property name="mlt_service">avformat</property>
  <property name="kdenlive:clipname"/>
  <property name="kdenlive:folderid">-1</property>
  <property name="kdenlive:id">7</property>
  <property name="kdenlive:file_size">251321</property>
  <property name="kdenlive:file_hash">bae39a6687c15ca77529cb7f2e6a031d</property>
  <property name="kdenlive:audio_max0">216</property>
 </producer>
 <playlist id="main_bin">
  <property name="kdenlive:docproperties.activeTrack">1</property>
  <property name="kdenlive:docproperties.audioChannels">2</property>
  <property name="kdenlive:docproperties.audioTarget">1</property>
  <property name="kdenlive:docproperties.disablepreview">0</property>
  <property name="kdenlive:docproperties.documentid">1645739101792</property>
  <property name="kdenlive:docproperties.enableTimelineZone">0</property>
  <property name="kdenlive:docproperties.enableexternalproxy">0</property>
  <property name="kdenlive:docproperties.enableproxy">0</property>
  <property name="kdenlive:docproperties.externalproxyparams"/>
  <property name="kdenlive:docproperties.generateimageproxy">0</property>
  <property name="kdenlive:docproperties.generateproxy">0</property>
  <property name="kdenlive:docproperties.kdenliveversion">21.12.2</property>
  <property name="kdenlive:docproperties.position">2968</property>
  <property name="kdenlive:docproperties.previewextension"/>
  <property name="kdenlive:docproperties.previewparameters"/>
  <property name="kdenlive:docproperties.profile">/home/iqsoft/.local/share/kdenlive/profiles/customprofile4</property>
  <property name="kdenlive:docproperties.proxyextension"/>
  <property name="kdenlive:docproperties.proxyimageminsize">2000</property>
  <property name="kdenlive:docproperties.proxyimagesize">800</property>
  <property name="kdenlive:docproperties.proxyminsize">1000</property>
  <property name="kdenlive:docproperties.proxyparams"/>
  <property name="kdenlive:docproperties.proxyresize">640</property>
  <property name="kdenlive:docproperties.scrollPos">0</property>
  <property name="kdenlive:docproperties.seekOffset">30000</property>
  <property name="kdenlive:docproperties.version">1.04</property>
  <property name="kdenlive:docproperties.verticalzoom">1</property>
  <property name="kdenlive:docproperties.videoTarget">-1</property>
  <property name="kdenlive:docproperties.zonein">0</property>
  <property name="kdenlive:docproperties.zoneout">2153</property>
  <property name="kdenlive:docproperties.zoom">10</property>
  <property name="kdenlive:expandedFolders"/>
  <property name="kdenlive:documentnotes"/>
  <property name="kdenlive:docproperties.groups">[
    {
        "children": [
            {
                "data": "3:372",
                "leaf": "clip",
                "type": "Leaf"
            },
            {
                "data": "0:372",
                "leaf": "clip",
                "type": "Leaf"
            }
        ],
        "type": "AVSplit"
    },
    {
        "children": [
            {
                "data": "3:1891",
                "leaf": "clip",
                "type": "Leaf"
            },
            {
                "data": "0:1891",
                "leaf": "clip",
                "type": "Leaf"
            }
        ],
        "type": "AVSplit"
    },
    {
        "children": [
            {
                "data": "0:0",
                "leaf": "clip",
                "type": "Leaf"
            },
            {
                "data": "3:0",
                "leaf": "clip",
                "type": "Leaf"
            }
        ],
        "type": "AVSplit"
    }
]
</property>
  <property name="kdenlive:docproperties.renderaudioquality">192</property>
  <property name="kdenlive:docproperties.rendercategory">Ultra-High Definition (4K)</property>
  <property name="kdenlive:docproperties.renderendguide">-1</property>
  <property name="kdenlive:docproperties.renderexportaudio">0</property>
  <property name="kdenlive:docproperties.renderfield">0</property>
  <property name="kdenlive:docproperties.renderguide">0</property>
  <property name="kdenlive:docproperties.renderplay">0</property>
  <property name="kdenlive:docproperties.renderprofile">MP4-H265 (HEVC)</property>
  <property name="kdenlive:docproperties.renderquality">23</property>
  <property name="kdenlive:docproperties.renderratio">1</property>
  <property name="kdenlive:docproperties.renderrescale">0</property>
  <property name="kdenlive:docproperties.renderrescaleheight">540</property>
  <property name="kdenlive:docproperties.renderrescalewidth">960</property>
  <property name="kdenlive:docproperties.renderscanning">0</property>
  <property name="kdenlive:docproperties.renderspeed">2</property>
  <property name="kdenlive:docproperties.renderstartguide">-1</property>
  <property name="kdenlive:docproperties.rendertcoverlay">0</property>
  <property name="kdenlive:docproperties.rendertctype">0</property>
  <property name="kdenlive:docproperties.rendertwopass">0</property>
  <property name="kdenlive:docproperties.renderurl">130video.mp4</property>
  <property name="kdenlive:docproperties.renderzone">0</property>
  <property name="xml_retain">1</property>
  <entry producer="producer0" in="00:00:00.000" out="00:01:00.751"/>
  <entry producer="producer1" in="00:00:00.000" out="00:00:20.979"/>
  <entry producer="producer2" in="00:00:00.000" out="00:01:06.965"/>
  <entry producer="producer3" in="00:00:00.000" out="00:00:21.897"/>
  <entry producer="producer4" in="00:00:00.000" out="00:00:17.601"/>
  <entry producer="producer5" in="00:00:00.000" out="00:00:29.947"/>
 </playlist>
 <producer id="black_track" in="00:00:00.000" out="00:22:21.063">
  <property name="length">2147483647</property>
  <property name="eof">continue</property>
  <property name="resource">black</property>
  <property name="aspect_ratio">1</property>
  <property name="mlt_service">color</property>
  <property name="mlt_image_format">rgba</property>
  <property name="set.test_audio">0</property>
 </producer>
 <producer id="producer6" in="00:00:00.000" out="00:00:21.897">
  <property name="length">526</property>
  <property name="eof">pause</property>
  <property name="resource">/home/iqsoft/Downloads/IMG_4686.mov</property>
  <property name="audio_index">1</property>
  <property name="video_index">0</property>
  <property name="mute_on_pause">0</property>
  <property name="mlt_service">avformat-novalidate</property>
  <property name="seekable">1</property>
  <property name="aspect_ratio">1</property>
  <property name="kdenlive:clipname"/>
  <property name="kdenlive:file_size">22303445</property>
  <property name="kdenlive:folderid">-1</property>
  <property name="kdenlive:id">6</property>
  <property name="kdenlive:file_hash">e0afdd344a5bbe61c25ae672bb494110</property>
  <property name="kdenlive:audio_max1">163</property>
  <property name="xml">was here</property>
  <property name="meta.media.nb_streams">4</property>
  <property name="meta.media.0.stream.type">video</property>
  <property name="meta.media.0.stream.frame_rate">29.5256</property>
  <property name="meta.media.0.stream.sample_aspect_ratio">0</property>
  <property name="meta.media.0.codec.width">1920</property>
  <property name="meta.media.0.codec.height">1080</property>
  <property name="meta.media.0.codec.rotate">90</property>
  <property name="meta.media.0.codec.pix_fmt">yuv420p</property>
  <property name="meta.media.0.codec.sample_aspect_ratio">0</property>
  <property name="meta.media.0.codec.colorspace">709</property>
  <property name="meta.media.0.codec.color_trc">1</property>
  <property name="meta.media.0.codec.name">hevc</property>
  <property name="meta.media.0.codec.long_name">HEVC (High Efficiency Video Coding)</property>
  <property name="meta.media.0.codec.bit_rate">7637045</property>
  <property name="meta.attr.0.stream.rotate.markup">90</property>
  <property name="meta.attr.0.stream.creation_time.markup">2022-02-25T11:47:14.000000Z</property>
  <property name="meta.attr.0.stream.handler_name.markup">Core Media Video</property>
  <property name="meta.attr.0.stream.encoder.markup">HEVC</property>
  <property name="meta.media.1.stream.type">audio</property>
  <property name="meta.media.1.codec.sample_fmt">fltp</property>
  <property name="meta.media.1.codec.sample_rate">44100</property>
  <property name="meta.media.1.codec.channels">2</property>
  <property name="meta.media.1.codec.name">aac</property>
  <property name="meta.media.1.codec.long_name">AAC (Advanced Audio Coding)</property>
  <property name="meta.media.1.codec.bit_rate">166314</property>
  <property name="meta.attr.1.stream.creation_time.markup">2022-02-25T11:47:14.000000Z</property>
  <property name="meta.attr.1.stream.handler_name.markup">Core Media Audio</property>
  <property name="meta.attr.major_brand.markup">qt  </property>
  <property name="meta.attr.minor_version.markup">0</property>
  <property name="meta.attr.compatible_brands.markup">qt  </property>
  <property name="meta.attr.creation_time.markup">2022-02-25T11:47:14.000000Z</property>
  <property name="meta.attr.com.apple.quicktime.location.accuracy.horizontal.markup">10.906264</property>
  <property name="meta.attr.com.apple.quicktime.location.ISO6709.markup">+39.6600+020.8217+485.621/</property>
  <property name="meta.attr.com.apple.quicktime.make.markup">Apple</property>
  <property name="meta.attr.com.apple.quicktime.model.markup">iPhone 11</property>
  <property name="meta.attr.com.apple.quicktime.software.markup">15.0.2</property>
  <property name="meta.attr.com.apple.quicktime.creationdate.markup">2022-02-25T13:43:02+0200</property>
  <property name="meta.media.sample_aspect_num">1</property>
  <property name="meta.media.sample_aspect_den">1</property>
  <property name="meta.media.frame_rate_num">80280</property>
  <property name="meta.media.frame_rate_den">2719</property>
  <property name="meta.media.colorspace">709</property>
  <property name="meta.media.color_trc">1</property>
  <property name="meta.media.has_b_frames">2</property>
  <property name="meta.media.width">1080</property>
  <property name="meta.media.height">1920</property>
  <property name="meta.media.color_range">mpeg</property>
  <property name="meta.media.top_field_first">0</property>
  <property name="meta.media.progressive">1</property>
  <property name="set.test_audio">0</property>
  <property name="set.test_image">1</property>
 </producer>
 <producer id="producer7" in="00:00:00.000" out="00:01:00.751">
  <property name="length">1457</property>
  <property name="eof">pause</property>
  <property name="resource">1munitevideo.mp4</property>
  <property name="audio_index">0</property>
  <property name="video_index">1</property>
  <property name="mute_on_pause">0</property>
  <property name="mlt_service">avformat-novalidate</property>
  <property name="seekable">1</property>
  <property name="aspect_ratio">1</property>
  <property name="kdenlive:clipname"/>
  <property name="kdenlive:folderid">-1</property>
  <property name="kdenlive:id">2</property>
  <property name="kdenlive:file_size">27869304</property>
  <property name="kdenlive:file_hash">38c65d765a755e6345a9de1de46d90b5</property>
  <property name="kdenlive:audio_max0">1</property>
  <property name="xml">was here</property>
  <property name="meta.media.nb_streams">2</property>
  <property name="meta.media.0.stream.type">audio</property>
  <property name="meta.media.0.codec.sample_fmt">fltp</property>
  <property name="meta.media.0.codec.sample_rate">48000</property>
  <property name="meta.media.0.codec.channels">1</property>
  <property name="meta.media.0.codec.name">aac</property>
  <property name="meta.media.0.codec.long_name">AAC (Advanced Audio Coding)</property>
  <property name="meta.media.0.codec.bit_rate">288020</property>
  <property name="meta.attr.0.stream.creation_time.markup">2022-02-21T20:35:13.000000Z</property>
  <property name="meta.attr.0.stream.language.markup">eng</property>
  <property name="meta.attr.0.stream.handler_name.markup">SoundHandle</property>
  <property name="meta.media.1.stream.type">video</property>
  <property name="meta.media.1.stream.frame_rate">23.9437</property>
  <property name="meta.media.1.stream.sample_aspect_ratio">1</property>
  <property name="meta.media.1.codec.width">1080</property>
  <property name="meta.media.1.codec.height">2340</property>
  <property name="meta.media.1.codec.rotate">0</property>
  <property name="meta.media.1.codec.pix_fmt">yuv420p</property>
  <property name="meta.media.1.codec.sample_aspect_ratio">0</property>
  <property name="meta.media.1.codec.colorspace">601</property>
  <property name="meta.media.1.codec.color_trc">6</property>
  <property name="meta.media.1.codec.name">h264</property>
  <property name="meta.media.1.codec.long_name">H.264 / AVC / MPEG-4 AVC / MPEG-4 part 10</property>
  <property name="meta.media.1.codec.bit_rate">3327581</property>
  <property name="meta.attr.1.stream.creation_time.markup">2022-02-21T20:35:13.000000Z</property>
  <property name="meta.attr.1.stream.language.markup">eng</property>
  <property name="meta.attr.1.stream.handler_name.markup">VideoHandle</property>
  <property name="meta.attr.major_brand.markup">mp42</property>
  <property name="meta.attr.minor_version.markup">0</property>
  <property name="meta.attr.compatible_brands.markup">isommp42</property>
  <property name="meta.attr.creation_time.markup">2022-02-21T20:35:13.000000Z</property>
  <property name="meta.attr.com.android.version.markup">11</property>
  <property name="meta.media.sample_aspect_num">1</property>
  <property name="meta.media.sample_aspect_den">1</property>
  <property name="meta.media.frame_rate_num">431</property>
  <property name="meta.media.frame_rate_den">18</property>
  <property name="meta.media.colorspace">601</property>
  <property name="meta.media.color_trc">6</property>
  <property name="meta.media.has_b_frames">0</property>
  <property name="meta.media.width">1080</property>
  <property name="meta.media.height">2340</property>
  <property name="meta.media.color_range">mpeg</property>
  <property name="set.test_audio">0</property>
  <property name="set.test_image">1</property>
  <property name="meta.media.variable_frame_rate">1</property>
 </producer>
 <producer id="producer8" in="00:00:00.000" out="00:00:10.886">
  <property name="length">262</property>
  <property name="eof">pause</property>
  <property name="resource">1.923700:22-02-21-21-41-30.mp4</property>
  <property name="aspect_ratio">1</property>
  <property name="meta.media.nb_streams">2</property>
  <property name="meta.media.0.stream.type">video</property>
  <property name="meta.media.0.stream.frame_rate">24.0461</property>
  <property name="meta.media.0.stream.sample_aspect_ratio">1</property>
  <property name="meta.media.0.codec.width">1080</property>
  <property name="meta.media.0.codec.height">2340</property>
  <property name="meta.media.0.codec.rotate">0</property>
  <property name="meta.media.0.codec.pix_fmt">yuv420p</property>
  <property name="meta.media.0.codec.sample_aspect_ratio">0</property>
  <property name="meta.media.0.codec.colorspace">601</property>
  <property name="meta.media.0.codec.color_trc">6</property>
  <property name="meta.media.0.codec.name">h264</property>
  <property name="meta.media.0.codec.long_name">H.264 / AVC / MPEG-4 AVC / MPEG-4 part 10</property>
  <property name="meta.media.0.codec.bit_rate">3632017</property>
  <property name="meta.attr.0.stream.creation_time.markup">2022-02-21T19:41:52.000000Z</property>
  <property name="meta.attr.0.stream.language.markup">eng</property>
  <property name="meta.attr.0.stream.handler_name.markup">VideoHandle</property>
  <property name="meta.media.1.stream.type">audio</property>
  <property name="meta.media.1.codec.sample_fmt">fltp</property>
  <property name="meta.media.1.codec.sample_rate">48000</property>
  <property name="meta.media.1.codec.channels">1</property>
  <property name="meta.media.1.codec.name">aac</property>
  <property name="meta.media.1.codec.long_name">AAC (Advanced Audio Coding)</property>
  <property name="meta.media.1.codec.bit_rate">287948</property>
  <property name="meta.attr.1.stream.creation_time.markup">2022-02-21T19:41:52.000000Z</property>
  <property name="meta.attr.1.stream.language.markup">eng</property>
  <property name="meta.attr.1.stream.handler_name.markup">SoundHandle</property>
  <property name="meta.attr.major_brand.markup">mp42</property>
  <property name="meta.attr.minor_version.markup">0</property>
  <property name="meta.attr.compatible_brands.markup">isommp42</property>
  <property name="meta.attr.creation_time.markup">2022-02-21T19:41:52.000000Z</property>
  <property name="meta.attr.com.android.version.markup">11</property>
  <property name="seekable">1</property>
  <property name="meta.media.sample_aspect_num">1</property>
  <property name="meta.media.sample_aspect_den">1</property>
  <property name="audio_index">1</property>
  <property name="video_index">0</property>
  <property name="mute_on_pause">1</property>
  <property name="warp_speed">1.9237</property>
  <property name="warp_resource">22-02-21-21-41-30.mp4</property>
  <property name="mlt_service">timewarp</property>
  <property name="set.test_audio">0</property>
  <property name="set.test_image">1</property>
  <property name="kdenlive:id">4</property>
  <property name="warp_pitch">0</property>
  <property name="meta.media.frame_rate_num">529</property>
  <property name="meta.media.frame_rate_den">22</property>
  <property name="meta.media.colorspace">601</property>
  <property name="meta.media.color_trc">6</property>
  <property name="meta.media.has_b_frames">0</property>
  <property name="meta.media.width">1080</property>
  <property name="meta.media.height">2340</property>
  <property name="meta.media.color_range">mpeg</property>
  <property name="meta.media.variable_frame_rate">1</property>
 </producer>
 <playlist id="playlist0">
  <property name="kdenlive:audio_track">1</property>
  <entry producer="producer6" in="00:00:06.423" out="00:00:21.897">
   <property name="kdenlive:id">6</property>
   <property name="kdenlive:activeeffect">0</property>
   <filter id="filter0" in="00:00:18.936" out="00:00:21.897">
    <property name="window">75</property>
    <property name="max_gain">20dB</property>
    <property name="mlt_service">volume</property>
    <property name="kdenlive_id">fadeout</property>
    <property name="gain">1</property>
    <property name="end">0</property>
    <property name="kdenlive:collapsed">0</property>
   </filter>
  </entry>
  <entry producer="producer7" in="00:00:00.000" out="00:01:00.751">
   <property name="kdenlive:id">2</property>
  </entry>
  <blank length="00:00:02.586"/>
  <entry producer="producer8" in="00:00:00.000" out="00:00:10.886">
   <property name="kdenlive:id">4</property>
  </entry>
 </playlist>
 <playlist id="playlist1">
  <property name="kdenlive:audio_track">1</property>
 </playlist>
 <tractor id="tractor0" in="00:00:00.000" out="00:01:29.780">
  <property name="kdenlive:audio_track">1</property>
  <property name="kdenlive:trackheight">69</property>
  <property name="kdenlive:timeline_active">1</property>
  <property name="kdenlive:collapsed">0</property>
  <property name="kdenlive:thumbs_format"/>
  <property name="kdenlive:audio_rec"/>
  <track hide="video" producer="playlist0"/>
  <track hide="video" producer="playlist1"/>
  <filter id="filter1">
   <property name="window">75</property>
   <property name="max_gain">20dB</property>
   <property name="mlt_service">volume</property>
   <property name="internal_added">237</property>
   <property name="disable">1</property>
  </filter>
  <filter id="filter2">
   <property name="channel">-1</property>
   <property name="mlt_service">panner</property>
   <property name="internal_added">237</property>
   <property name="start">0.5</property>
   <property name="disable">1</property>
  </filter>
  <filter id="filter3">
   <property name="iec_scale">0</property>
   <property name="mlt_service">audiolevel</property>
   <property name="disable">1</property>
  </filter>
 </tractor>
 <producer id="producer9" in="00:00:00.000" out="00:00:29.947">
  <property name="length">719</property>
  <property name="eof">pause</property>
  <property name="resource">/home/iqsoft/Downloads/Ioannina 4.m4a</property>
  <property name="meta.media.nb_streams">1</property>
  <property name="meta.media.0.stream.type">audio</property>
  <property name="meta.media.0.codec.sample_fmt">fltp</property>
  <property name="meta.media.0.codec.sample_rate">48000</property>
  <property name="meta.media.0.codec.channels">1</property>
  <property name="meta.media.0.codec.name">aac</property>
  <property name="meta.media.0.codec.long_name">AAC (Advanced Audio Coding)</property>
  <property name="meta.media.0.codec.bit_rate">62830</property>
  <property name="meta.attr.0.stream.creation_time.markup">2022-02-25T12:11:55.000000Z</property>
  <property name="meta.attr.0.stream.handler_name.markup">Core Media Audio</property>
  <property name="meta.attr.major_brand.markup">M4A </property>
  <property name="meta.attr.minor_version.markup">0</property>
  <property name="meta.attr.compatible_brands.markup">M4A isommp42</property>
  <property name="meta.attr.creation_time.markup">2022-02-25T12:11:55.000000Z</property>
  <property name="meta.attr.title.markup">Ioannina 4</property>
  <property name="meta.attr.voice-memo-uuid.markup">9FF81361-F472-41AA-980F-C2BE551F4D9B</property>
  <property name="meta.attr.encoder.markup">com.apple.VoiceMemos (ILIASP IPHONE (null))</property>
  <property name="seekable">1</property>
  <property name="audio_index">0</property>
  <property name="video_index">-1</property>
  <property name="mute_on_pause">0</property>
  <property name="mlt_service">avformat-novalidate</property>
  <property name="kdenlive:clipname"/>
  <property name="kdenlive:folderid">-1</property>
  <property name="kdenlive:id">7</property>
  <property name="kdenlive:file_size">251321</property>
  <property name="kdenlive:file_hash">bae39a6687c15ca77529cb7f2e6a031d</property>
  <property name="kdenlive:audio_max0">216</property>
  <property name="xml">was here</property>
  <property name="set.test_audio">0</property>
  <property name="set.test_image">1</property>
 </producer>
 <producer id="producer10" in="00:00:00.000" out="00:00:17.601">
  <property name="length">423</property>
  <property name="eof">pause</property>
  <property name="resource">/home/iqsoft/Downloads/Ioannina 3.m4a</property>
  <property name="meta.media.nb_streams">1</property>
  <property name="meta.media.0.stream.type">audio</property>
  <property name="meta.media.0.codec.sample_fmt">fltp</property>
  <property name="meta.media.0.codec.sample_rate">48000</property>
  <property name="meta.media.0.codec.channels">1</property>
  <property name="meta.media.0.codec.name">aac</property>
  <property name="meta.media.0.codec.long_name">AAC (Advanced Audio Coding)</property>
  <property name="meta.media.0.codec.bit_rate">64065</property>
  <property name="meta.attr.0.stream.creation_time.markup">2022-02-25T11:57:16.000000Z</property>
  <property name="meta.attr.0.stream.handler_name.markup">Core Media Audio</property>
  <property name="meta.attr.major_brand.markup">M4A </property>
  <property name="meta.attr.minor_version.markup">0</property>
  <property name="meta.attr.compatible_brands.markup">M4A isommp42</property>
  <property name="meta.attr.creation_time.markup">2022-02-25T11:57:16.000000Z</property>
  <property name="meta.attr.title.markup">Ioannina 3</property>
  <property name="meta.attr.voice-memo-uuid.markup">0884CBD8-5188-4E9E-8B8C-16921A9ED4B3</property>
  <property name="meta.attr.encoder.markup">com.apple.VoiceMemos (ILIASP IPHONE (null))</property>
  <property name="seekable">1</property>
  <property name="audio_index">0</property>
  <property name="video_index">-1</property>
  <property name="mute_on_pause">0</property>
  <property name="mlt_service">avformat-novalidate</property>
  <property name="kdenlive:clipname"/>
  <property name="kdenlive:folderid">-1</property>
  <property name="kdenlive:id">8</property>
  <property name="kdenlive:file_size">151578</property>
  <property name="kdenlive:file_hash">5a2e86e60228c1fd92a74166a5f6b7a1</property>
  <property name="kdenlive:audio_max0">216</property>
  <property name="xml">was here</property>
  <property name="set.test_audio">0</property>
  <property name="set.test_image">1</property>
 </producer>
 <producer id="producer11" in="00:00:00.000" out="00:01:06.965">
  <property name="length">1606</property>
  <property name="eof">pause</property>
  <property name="resource">/home/iqsoft/Downloads/Christaki Zografou.m4a</property>
  <property name="meta.media.nb_streams">1</property>
  <property name="meta.media.0.stream.type">audio</property>
  <property name="meta.media.0.codec.sample_fmt">fltp</property>
  <property name="meta.media.0.codec.sample_rate">48000</property>
  <property name="meta.media.0.codec.channels">1</property>
  <property name="meta.media.0.codec.name">aac</property>
  <property name="meta.media.0.codec.long_name">AAC (Advanced Audio Coding)</property>
  <property name="meta.media.0.codec.bit_rate">63212</property>
  <property name="meta.attr.0.stream.creation_time.markup">2022-02-23T21:43:33.000000Z</property>
  <property name="meta.attr.0.stream.handler_name.markup">Core Media Audio</property>
  <property name="meta.attr.major_brand.markup">M4A </property>
  <property name="meta.attr.minor_version.markup">0</property>
  <property name="meta.attr.compatible_brands.markup">M4A isommp42</property>
  <property name="meta.attr.creation_time.markup">2022-02-23T21:43:33.000000Z</property>
  <property name="meta.attr.title.markup">Christaki Zografou</property>
  <property name="meta.attr.voice-memo-uuid.markup">32FA45B9-224F-4029-8E21-F502F60EC81A</property>
  <property name="meta.attr.encoder.markup">com.apple.VoiceMemos (ILIASP IPHONE (null))</property>
  <property name="seekable">1</property>
  <property name="audio_index">0</property>
  <property name="video_index">-1</property>
  <property name="mute_on_pause">0</property>
  <property name="mlt_service">avformat-novalidate</property>
  <property name="kdenlive:clipname">betastro.m4a</property>
  <property name="kdenlive:folderid">-1</property>
  <property name="kdenlive:id">3</property>
  <property name="kdenlive:file_size">562206</property>
  <property name="kdenlive:file_hash">bcd926c48bbe017d3b1dcbc31f08b5a8</property>
  <property name="kdenlive:audio_max0">196</property>
  <property name="xml">was here</property>
  <property name="set.test_audio">0</property>
  <property name="set.test_image">1</property>
 </producer>
 <playlist id="playlist2">
  <property name="kdenlive:audio_track">1</property>
  <blank length="00:00:15.515"/>
  <entry producer="producer9" in="00:00:00.000" out="00:00:05.505">
   <property name="kdenlive:id">7</property>
   <property name="kdenlive:activeeffect">-1</property>
  </entry>
  <blank length="00:00:05.589"/>
  <entry producer="producer9" in="00:00:06.757" out="00:00:12.137">
   <property name="kdenlive:id">7</property>
  </entry>
  <blank length="00:00:05.923"/>
  <entry producer="producer10" in="00:00:00.667" out="00:00:08.759">
   <property name="kdenlive:id">8</property>
  </entry>
  <blank length="00:00:10.511"/>
  <entry producer="producer10" in="00:00:09.760" out="00:00:16.266">
   <property name="kdenlive:id">8</property>
  </entry>
  <blank length="00:00:07.216"/>
  <entry producer="producer11" in="00:00:35.661" out="00:00:41.500">
   <property name="kdenlive:id">3</property>
  </entry>
  <blank length="00:00:02.586"/>
  <entry producer="producer11" in="00:00:50.717" out="00:00:58.767">
   <property name="kdenlive:id">3</property>
  </entry>
 </playlist>
 <playlist id="playlist3">
  <property name="kdenlive:audio_track">1</property>
 </playlist>
 <tractor id="tractor1" in="00:00:00.000" out="00:01:26.944">
  <property name="kdenlive:audio_track">1</property>
  <property name="kdenlive:trackheight">69</property>
  <property name="kdenlive:timeline_active">1</property>
  <property name="kdenlive:collapsed">0</property>
  <property name="kdenlive:thumbs_format"/>
  <property name="kdenlive:audio_rec"/>
  <track hide="video" producer="playlist2"/>
  <track hide="video" producer="playlist3"/>
  <filter id="filter4">
   <property name="window">75</property>
   <property name="max_gain">20dB</property>
   <property name="mlt_service">volume</property>
   <property name="internal_added">237</property>
   <property name="disable">1</property>
  </filter>
  <filter id="filter5">
   <property name="channel">-1</property>
   <property name="mlt_service">panner</property>
   <property name="internal_added">237</property>
   <property name="start">0.5</property>
   <property name="disable">1</property>
  </filter>
  <filter id="filter6">
   <property name="iec_scale">0</property>
   <property name="mlt_service">audiolevel</property>
   <property name="disable">1</property>
  </filter>
 </tractor>
 <playlist id="playlist4"/>
 <playlist id="playlist5"/>
 <tractor id="tractor2" in="00:00:00.000">
  <property name="kdenlive:trackheight">69</property>
  <property name="kdenlive:timeline_active">1</property>
  <property name="kdenlive:collapsed">0</property>
  <property name="kdenlive:thumbs_format"/>
  <property name="kdenlive:audio_rec"/>
  <track hide="audio" producer="playlist4"/>
  <track hide="audio" producer="playlist5"/>
 </tractor>
 <producer id="producer12" in="00:00:00.000" out="00:00:21.897">
  <property name="length">526</property>
  <property name="eof">pause</property>
  <property name="resource">/home/iqsoft/Downloads/IMG_4686.mov</property>
  <property name="audio_index">1</property>
  <property name="video_index">0</property>
  <property name="mute_on_pause">0</property>
  <property name="mlt_service">avformat-novalidate</property>
  <property name="seekable">1</property>
  <property name="aspect_ratio">1</property>
  <property name="kdenlive:clipname"/>
  <property name="kdenlive:file_size">22303445</property>
  <property name="kdenlive:folderid">-1</property>
  <property name="kdenlive:id">6</property>
  <property name="kdenlive:file_hash">e0afdd344a5bbe61c25ae672bb494110</property>
  <property name="kdenlive:audio_max1">163</property>
  <property name="xml">was here</property>
  <property name="meta.media.nb_streams">4</property>
  <property name="meta.media.0.stream.type">video</property>
  <property name="meta.media.0.stream.frame_rate">29.5256</property>
  <property name="meta.media.0.stream.sample_aspect_ratio">0</property>
  <property name="meta.media.0.codec.width">1920</property>
  <property name="meta.media.0.codec.height">1080</property>
  <property name="meta.media.0.codec.rotate">90</property>
  <property name="meta.media.0.codec.pix_fmt">yuv420p</property>
  <property name="meta.media.0.codec.sample_aspect_ratio">0</property>
  <property name="meta.media.0.codec.colorspace">709</property>
  <property name="meta.media.0.codec.color_trc">1</property>
  <property name="meta.media.0.codec.name">hevc</property>
  <property name="meta.media.0.codec.long_name">HEVC (High Efficiency Video Coding)</property>
  <property name="meta.media.0.codec.bit_rate">7637045</property>
  <property name="meta.attr.0.stream.rotate.markup">90</property>
  <property name="meta.attr.0.stream.creation_time.markup">2022-02-25T11:47:14.000000Z</property>
  <property name="meta.attr.0.stream.handler_name.markup">Core Media Video</property>
  <property name="meta.attr.0.stream.encoder.markup">HEVC</property>
  <property name="meta.media.1.stream.type">audio</property>
  <property name="meta.media.1.codec.sample_fmt">fltp</property>
  <property name="meta.media.1.codec.sample_rate">44100</property>
  <property name="meta.media.1.codec.channels">2</property>
  <property name="meta.media.1.codec.name">aac</property>
  <property name="meta.media.1.codec.long_name">AAC (Advanced Audio Coding)</property>
  <property name="meta.media.1.codec.bit_rate">166314</property>
  <property name="meta.attr.1.stream.creation_time.markup">2022-02-25T11:47:14.000000Z</property>
  <property name="meta.attr.1.stream.handler_name.markup">Core Media Audio</property>
  <property name="meta.attr.major_brand.markup">qt  </property>
  <property name="meta.attr.minor_version.markup">0</property>
  <property name="meta.attr.compatible_brands.markup">qt  </property>
  <property name="meta.attr.creation_time.markup">2022-02-25T11:47:14.000000Z</property>
  <property name="meta.attr.com.apple.quicktime.location.accuracy.horizontal.markup">10.906264</property>
  <property name="meta.attr.com.apple.quicktime.location.ISO6709.markup">+39.6600+020.8217+485.621/</property>
  <property name="meta.attr.com.apple.quicktime.make.markup">Apple</property>
  <property name="meta.attr.com.apple.quicktime.model.markup">iPhone 11</property>
  <property name="meta.attr.com.apple.quicktime.software.markup">15.0.2</property>
  <property name="meta.attr.com.apple.quicktime.creationdate.markup">2022-02-25T13:43:02+0200</property>
  <property name="meta.media.sample_aspect_num">1</property>
  <property name="meta.media.sample_aspect_den">1</property>
  <property name="meta.media.frame_rate_num">80280</property>
  <property name="meta.media.frame_rate_den">2719</property>
  <property name="meta.media.colorspace">709</property>
  <property name="meta.media.color_trc">1</property>
  <property name="meta.media.has_b_frames">2</property>
  <property name="meta.media.width">1080</property>
  <property name="meta.media.height">1920</property>
  <property name="meta.media.color_range">mpeg</property>
  <property name="meta.media.top_field_first">0</property>
  <property name="meta.media.progressive">1</property>
  <property name="set.test_audio">1</property>
  <property name="set.test_image">0</property>
 </producer>
 <producer id="producer13" in="00:00:00.000" out="00:01:00.751">
  <property name="length">1457</property>
  <property name="eof">pause</property>
  <property name="resource">1munitevideo.mp4</property>
  <property name="audio_index">0</property>
  <property name="video_index">1</property>
  <property name="mute_on_pause">0</property>
  <property name="mlt_service">avformat-novalidate</property>
  <property name="seekable">1</property>
  <property name="aspect_ratio">1</property>
  <property name="kdenlive:clipname"/>
  <property name="kdenlive:folderid">-1</property>
  <property name="kdenlive:id">2</property>
  <property name="kdenlive:file_size">27869304</property>
  <property name="kdenlive:file_hash">38c65d765a755e6345a9de1de46d90b5</property>
  <property name="kdenlive:audio_max0">1</property>
  <property name="xml">was here</property>
  <property name="meta.media.nb_streams">2</property>
  <property name="meta.media.0.stream.type">audio</property>
  <property name="meta.media.0.codec.sample_fmt">fltp</property>
  <property name="meta.media.0.codec.sample_rate">48000</property>
  <property name="meta.media.0.codec.channels">1</property>
  <property name="meta.media.0.codec.name">aac</property>
  <property name="meta.media.0.codec.long_name">AAC (Advanced Audio Coding)</property>
  <property name="meta.media.0.codec.bit_rate">288020</property>
  <property name="meta.attr.0.stream.creation_time.markup">2022-02-21T20:35:13.000000Z</property>
  <property name="meta.attr.0.stream.language.markup">eng</property>
  <property name="meta.attr.0.stream.handler_name.markup">SoundHandle</property>
  <property name="meta.media.1.stream.type">video</property>
  <property name="meta.media.1.stream.frame_rate">23.9437</property>
  <property name="meta.media.1.stream.sample_aspect_ratio">1</property>
  <property name="meta.media.1.codec.width">1080</property>
  <property name="meta.media.1.codec.height">2340</property>
  <property name="meta.media.1.codec.rotate">0</property>
  <property name="meta.media.1.codec.pix_fmt">yuv420p</property>
  <property name="meta.media.1.codec.sample_aspect_ratio">0</property>
  <property name="meta.media.1.codec.colorspace">601</property>
  <property name="meta.media.1.codec.color_trc">6</property>
  <property name="meta.media.1.codec.name">h264</property>
  <property name="meta.media.1.codec.long_name">H.264 / AVC / MPEG-4 AVC / MPEG-4 part 10</property>
  <property name="meta.media.1.codec.bit_rate">3327581</property>
  <property name="meta.attr.1.stream.creation_time.markup">2022-02-21T20:35:13.000000Z</property>
  <property name="meta.attr.1.stream.language.markup">eng</property>
  <property name="meta.attr.1.stream.handler_name.markup">VideoHandle</property>
  <property name="meta.attr.major_brand.markup">mp42</property>
  <property name="meta.attr.minor_version.markup">0</property>
  <property name="meta.attr.compatible_brands.markup">isommp42</property>
  <property name="meta.attr.creation_time.markup">2022-02-21T20:35:13.000000Z</property>
  <property name="meta.attr.com.android.version.markup">11</property>
  <property name="meta.media.sample_aspect_num">1</property>
  <property name="meta.media.sample_aspect_den">1</property>
  <property name="meta.media.frame_rate_num">431</property>
  <property name="meta.media.frame_rate_den">18</property>
  <property name="meta.media.colorspace">601</property>
  <property name="meta.media.color_trc">6</property>
  <property name="meta.media.has_b_frames">0</property>
  <property name="meta.media.width">1080</property>
  <property name="meta.media.height">2340</property>
  <property name="meta.media.color_range">mpeg</property>
  <property name="set.test_audio">1</property>
  <property name="set.test_image">0</property>
  <property name="meta.media.variable_frame_rate">1</property>
  <property name="meta.media.top_field_first">0</property>
  <property name="meta.media.progressive">1</property>
 </producer>
 <producer id="producer14" in="00:00:00.000" out="00:00:10.886">
  <property name="length">262</property>
  <property name="eof">pause</property>
  <property name="resource">1.923700:22-02-21-21-41-30.mp4</property>
  <property name="aspect_ratio">1</property>
  <property name="meta.media.nb_streams">2</property>
  <property name="meta.media.0.stream.type">video</property>
  <property name="meta.media.0.stream.frame_rate">24.0461</property>
  <property name="meta.media.0.stream.sample_aspect_ratio">1</property>
  <property name="meta.media.0.codec.width">1080</property>
  <property name="meta.media.0.codec.height">2340</property>
  <property name="meta.media.0.codec.rotate">0</property>
  <property name="meta.media.0.codec.pix_fmt">yuv420p</property>
  <property name="meta.media.0.codec.sample_aspect_ratio">0</property>
  <property name="meta.media.0.codec.colorspace">601</property>
  <property name="meta.media.0.codec.color_trc">6</property>
  <property name="meta.media.0.codec.name">h264</property>
  <property name="meta.media.0.codec.long_name">H.264 / AVC / MPEG-4 AVC / MPEG-4 part 10</property>
  <property name="meta.media.0.codec.bit_rate">3632017</property>
  <property name="meta.attr.0.stream.creation_time.markup">2022-02-21T19:41:52.000000Z</property>
  <property name="meta.attr.0.stream.language.markup">eng</property>
  <property name="meta.attr.0.stream.handler_name.markup">VideoHandle</property>
  <property name="meta.media.1.stream.type">audio</property>
  <property name="meta.media.1.codec.sample_fmt">fltp</property>
  <property name="meta.media.1.codec.sample_rate">48000</property>
  <property name="meta.media.1.codec.channels">1</property>
  <property name="meta.media.1.codec.name">aac</property>
  <property name="meta.media.1.codec.long_name">AAC (Advanced Audio Coding)</property>
  <property name="meta.media.1.codec.bit_rate">287948</property>
  <property name="meta.attr.1.stream.creation_time.markup">2022-02-21T19:41:52.000000Z</property>
  <property name="meta.attr.1.stream.language.markup">eng</property>
  <property name="meta.attr.1.stream.handler_name.markup">SoundHandle</property>
  <property name="meta.attr.major_brand.markup">mp42</property>
  <property name="meta.attr.minor_version.markup">0</property>
  <property name="meta.attr.compatible_brands.markup">isommp42</property>
  <property name="meta.attr.creation_time.markup">2022-02-21T19:41:52.000000Z</property>
  <property name="meta.attr.com.android.version.markup">11</property>
  <property name="seekable">1</property>
  <property name="meta.media.sample_aspect_num">1</property>
  <property name="meta.media.sample_aspect_den">1</property>
  <property name="audio_index">1</property>
  <property name="video_index">0</property>
  <property name="mute_on_pause">1</property>
  <property name="warp_speed">1.9237</property>
  <property name="warp_resource">22-02-21-21-41-30.mp4</property>
  <property name="mlt_service">timewarp</property>
  <property name="set.test_audio">1</property>
  <property name="set.test_image">0</property>
  <property name="kdenlive:id">4</property>
  <property name="warp_pitch">0</property>
  <property name="meta.media.frame_rate_num">529</property>
  <property name="meta.media.frame_rate_den">22</property>
  <property name="meta.media.colorspace">601</property>
  <property name="meta.media.color_trc">6</property>
  <property name="meta.media.has_b_frames">0</property>
  <property name="meta.media.width">1080</property>
  <property name="meta.media.height">2340</property>
  <property name="meta.media.color_range">mpeg</property>
  <property name="meta.media.variable_frame_rate">1</property>
  <property name="meta.media.top_field_first">0</property>
  <property name="meta.media.progressive">1</property>
 </producer>
 <playlist id="playlist6">
  <entry producer="producer12" in="00:00:06.423" out="00:00:21.897">
   <property name="kdenlive:id">6</property>
   <filter id="filter7" in="00:00:20.938" out="00:00:21.939">
    <property name="start">1</property>
    <property name="level">1</property>
    <property name="mlt_service">brightness</property>
    <property name="kdenlive_id">fade_to_black</property>
    <property name="alpha">00:00:00.000=1;00:00:01.001=0</property>
    <property name="kdenlive:collapsed">0</property>
   </filter>
  </entry>
  <entry producer="producer13" in="00:00:00.000" out="00:01:00.751">
   <property name="kdenlive:id">2</property>
   <property name="kdenlive:activeeffect">1</property>
   <filter id="filter8" in="00:00:59.720" out="00:01:00.720">
    <property name="start">1</property>
    <property name="level">1</property>
    <property name="mlt_service">brightness</property>
    <property name="kdenlive_id">fade_to_black</property>
    <property name="alpha">00:00:00.000=1;00:00:01.000=0</property>
    <property name="kdenlive:collapsed">0</property>
   </filter>
   <filter id="filter9" out="00:00:00.959">
    <property name="start">1</property>
    <property name="level">1</property>
    <property name="mlt_service">brightness</property>
    <property name="kdenlive_id">fade_from_black</property>
    <property name="alpha">00:00:00.000=0;00:00:00.959=1</property>
    <property name="kdenlive:collapsed">0</property>
   </filter>
  </entry>
  <blank length="00:00:02.586"/>
  <entry producer="producer14" in="00:00:00.000" out="00:00:10.886">
   <property name="kdenlive:id">4</property>
   <filter id="filter10" out="00:00:01.000">
    <property name="start">1</property>
    <property name="level">1</property>
    <property name="mlt_service">brightness</property>
    <property name="kdenlive_id">fade_from_black</property>
    <property name="alpha">00:00:00.000=0;00:00:01.000=1</property>
    <property name="kdenlive:collapsed">0</property>
   </filter>
  </entry>
 </playlist>
 <playlist id="playlist7"/>
 <tractor id="tractor3" in="00:00:00.000" out="00:01:29.780">
  <property name="kdenlive:trackheight">69</property>
  <property name="kdenlive:timeline_active">1</property>
  <property name="kdenlive:collapsed">0</property>
  <property name="kdenlive:thumbs_format"/>
  <property name="kdenlive:audio_rec"/>
  <track hide="audio" producer="playlist6"/>
  <track hide="audio" producer="playlist7"/>
 </tractor>
 <tractor id="tractor4" in="00:00:00.000" out="00:22:21.063">
  <track producer="black_track"/>
  <track producer="tractor0"/>
  <track producer="tractor1"/>
  <track producer="tractor2"/>
  <track producer="tractor3"/>
  <transition id="transition0">
   <property name="a_track">0</property>
   <property name="b_track">1</property>
   <property name="mlt_service">mix</property>
   <property name="kdenlive_id">mix</property>
   <property name="internal_added">237</property>
   <property name="always_active">1</property>
   <property name="accepts_blanks">1</property>
   <property name="sum">1</property>
  </transition>
  <transition id="transition1">
   <property name="a_track">0</property>
   <property name="b_track">2</property>
   <property name="mlt_service">mix</property>
   <property name="kdenlive_id">mix</property>
   <property name="internal_added">237</property>
   <property name="always_active">1</property>
   <property name="accepts_blanks">1</property>
   <property name="sum">1</property>
  </transition>
  <transition id="transition2">
   <property name="a_track">0</property>
   <property name="b_track">3</property>
   <property name="version">0.1</property>
   <property name="mlt_service">frei0r.cairoblend</property>
   <property name="kdenlive_id">frei0r.cairoblend</property>
   <property name="internal_added">237</property>
   <property name="always_active">1</property>
  </transition>
  <transition id="transition3">
   <property name="a_track">0</property>
   <property name="b_track">4</property>
   <property name="version">0.1</property>
   <property name="mlt_service">frei0r.cairoblend</property>
   <property name="kdenlive_id">frei0r.cairoblend</property>
   <property name="internal_added">237</property>
   <property name="always_active">1</property>
  </transition>
  <filter id="filter11">
   <property name="window">75</property>
   <property name="max_gain">20dB</property>
   <property name="mlt_service">volume</property>
   <property name="internal_added">237</property>
   <property name="disable">1</property>
  </filter>
  <filter id="filter12">
   <property name="channel">-1</property>
   <property name="mlt_service">panner</property>
   <property name="internal_added">237</property>
   <property name="start">0.5</property>
   <property name="disable">1</property>
  </filter>
  <filter id="filter13">
   <property name="iec_scale">0</property>
   <property name="mlt_service">audiolevel</property>
   <property name="disable">1</property>
  </filter>
 </tractor>
</mlt>
